<svg width="1512" height="982" viewBox="0 0 1512 982" fill="none" xmlns="http://www.w3.org/2000/svg">
<rect width="1512" height="982" fill="#FDF6E0"/>
<rect x="163.5" y="309.5" width="1149" height="542" rx="2.5" fill="white" stroke="#23537B" stroke-width="5"/>
<rect x="996.5" y="309.5" width="316" height="542" rx="2.5" fill="#F1F1F1" stroke="#23537B" stroke-width="5"/>
<line x1="1115.5" y1="308" x2="1115.5" y2="854" stroke="#23537B" stroke-width="5"/>
<rect x="997.5" y="310.5" width="117" height="90" fill="#23537B" stroke="#23537B" stroke-width="3"/>
<rect x="997.5" y="400.5" width="119" height="90" stroke="#23537B" stroke-width="3"/>
<rect x="997.5" y="490.5" width="119" height="91" stroke="#23537B" stroke-width="3"/>
<rect x="997.5" y="672.5" width="119" height="88" stroke="#23537B" stroke-width="3"/>
<rect x="997.5" y="760.5" width="119" height="90" stroke="#23537B" stroke-width="3"/>
<rect x="997.5" y="581.5" width="119" height="91" stroke="#23537B" stroke-width="3"/>
<circle cx="1249.5" cy="584.5" r="26.5" fill="#FF2C00"/>
<circle cx="1249.5" cy="584.5" r="25.5" stroke="black" stroke-opacity="0.1" stroke-width="2"/>
<circle cx="1182.5" cy="791.5" r="26.5" fill="#7200B9"/>
<circle cx="1182.5" cy="791.5" r="25.5" stroke="black" stroke-opacity="0.1" stroke-width="2"/>
<circle cx="1182.5" cy="446.5" r="26.5" fill="white"/>
<circle cx="1182.5" cy="446.5" r="25.5" stroke="black" stroke-opacity="0.1" stroke-width="2"/>
<circle cx="1182.5" cy="515.5" r="26.5" fill="#E6E6E6"/>
<circle cx="1182.5" cy="515.5" r="25.5" stroke="black" stroke-opacity="0.1" stroke-width="2"/>
<circle cx="1182.5" cy="584.5" r="26.5" fill="#808080"/>
<circle cx="1182.5" cy="584.5" r="25.5" stroke="black" stroke-opacity="0.1" stroke-width="2"/>
<circle cx="1182.5" cy="653.5" r="24" fill="#1A1A1A" stroke="#23537B" stroke-width="5"/>
<circle cx="1249.5" cy="446.5" r="26.5" fill="#FCFB00"/>
<circle cx="1249.5" cy="446.5" r="25.5" stroke="black" stroke-opacity="0.1" stroke-width="2"/>
<circle cx="1249.5" cy="653.5" r="26.5" fill="#C5EF00"/>
<circle cx="1249.5" cy="653.5" r="25.5" stroke="black" stroke-opacity="0.1" stroke-width="2"/>
<circle cx="1249.5" cy="722.5" r="26.5" fill="#00CBF8"/>
<circle cx="1249.5" cy="722.5" r="25.5" stroke="black" stroke-opacity="0.1" stroke-width="2"/>
<circle cx="1249.5" cy="515.5" r="26.5" fill="#FFCB00"/>
<circle cx="1249.5" cy="515.5" r="25.5" stroke="black" stroke-opacity="0.1" stroke-width="2"/>
<circle cx="1182.5" cy="722.5" r="26.5" fill="#00AD8A"/>
<circle cx="1182.5" cy="722.5" r="25.5" stroke="black" stroke-opacity="0.1" stroke-width="2"/>
<path d="M1020.34 643.86C1020.34 646.22 1020.42 650.4 1027.32 650.4C1034.24 650.4 1034.32 646.22 1034.32 643.86V635.72H1031.32V643.78C1031.32 645.76 1031.24 648.16 1027.32 648.16C1023.42 648.16 1023.34 645.76 1023.34 643.78V635.72H1020.34V643.86ZM1036.78 650H1039.54V644.3C1039.54 642.04 1041.4 641.24 1042.84 641.24C1045.12 641.24 1045.5 642.54 1045.5 643.68V650H1048.26V642.8C1048.26 639.94 1046.04 639.12 1043.76 639.12C1041.88 639.12 1040.48 639.86 1039.58 641H1039.54V639.4H1036.78V650ZM1052.91 644.74C1052.91 642.98 1053.89 641.24 1056.49 641.24C1059.07 641.24 1060.05 642.98 1060.05 644.74C1060.05 646.54 1059.07 648.28 1056.49 648.28C1053.89 648.28 1052.91 646.54 1052.91 644.74ZM1062.69 635.48H1059.93V640.92H1059.89C1059.07 639.64 1057.49 639.12 1055.83 639.12C1051.79 639.12 1050.03 642.06 1050.03 644.74C1050.03 647.46 1051.79 650.4 1055.83 650.4C1058.03 650.4 1059.69 649.18 1059.89 648.54H1059.93V650H1062.69V635.48ZM1067.34 644.7C1067.34 642.86 1068.34 641.12 1071.02 641.12C1073.7 641.12 1074.7 642.86 1074.7 644.7C1074.7 646.54 1073.7 648.28 1071.02 648.28C1068.34 648.28 1067.34 646.54 1067.34 644.7ZM1064.46 644.7C1064.46 647.62 1066.28 650.4 1071.02 650.4C1075.76 650.4 1077.58 647.62 1077.58 644.7C1077.58 641.78 1075.76 639 1071.02 639C1066.28 639 1064.46 641.78 1064.46 644.7Z" fill="#23537B"/>
<path d="M1023.46 368.96H1027.52C1029.2 368.96 1032.14 369.24 1032.14 373.88C1032.14 378.06 1029.84 378.76 1027.68 378.76H1023.46V368.96ZM1020.46 381H1028.88C1033.74 381 1035.14 377.08 1035.14 374C1035.14 369.92 1033.76 366.72 1028.16 366.72H1020.46V381ZM1037.15 381H1039.91V375.88C1039.91 373.42 1041.89 372.68 1043.29 372.68C1043.77 372.68 1044.29 372.7 1045.05 372.94V370.22C1044.69 370.16 1044.37 370.12 1043.95 370.12C1041.83 370.12 1040.69 371.26 1039.95 372.46H1039.91V370.4H1037.15V381ZM1057.79 373.56C1057.79 372.18 1057.63 370 1052.09 370C1048.95 370 1046.89 370.86 1046.49 373.64H1049.19C1049.29 372.46 1050.27 371.88 1052.09 371.88C1053.69 371.88 1055.09 372.18 1055.09 373.4C1055.09 374.22 1054.67 374.36 1050.71 374.74C1048.95 374.9 1045.95 375.16 1045.95 378.08C1045.95 380.16 1047.51 381.4 1050.27 381.4C1053.37 381.4 1054.71 380.46 1055.25 379.94C1055.33 380.34 1055.53 381.3 1057.33 381.3C1058.27 381.3 1058.75 381.16 1059.29 381.06V379.12C1059.07 379.16 1058.65 379.18 1058.39 379.18C1058.21 379.18 1057.79 379.16 1057.79 378.58V373.56ZM1055.03 376.74C1055.03 379.08 1052.53 379.64 1051.05 379.64C1050.11 379.64 1048.83 379.38 1048.83 377.98C1048.83 377.08 1049.33 376.62 1051.41 376.38C1053.37 376.16 1054.23 376.06 1055.03 375.72V376.74ZM1063.47 381H1066.59L1069.17 373.64H1069.21L1071.79 381H1074.91L1078.93 370.4H1075.93L1073.21 378.16H1073.17L1070.63 370.4H1067.75L1065.21 378.16H1065.17L1062.45 370.4H1059.45L1063.47 381Z" fill="#F1F1F1"/>
<path d="M1020.46 469H1023.46V462.8H1031.86V460.56H1023.46V456.96H1032.34V454.72H1020.46V469ZM1033.89 469H1036.65V458.4H1033.89V469ZM1033.89 456.72H1036.65V454.48H1033.89V456.72ZM1039.05 469H1041.81V454.48H1039.05V469ZM1044.2 469H1046.96V454.48H1044.2V469Z" fill="#23537B"/>
<path d="M1020.46 557H1033.02V554.76H1023.46V550.8H1032.48V548.56H1023.46V544.96H1032.86V542.72H1020.46V557ZM1034.94 557H1037.7V551.88C1037.7 549.42 1039.68 548.68 1041.08 548.68C1041.56 548.68 1042.08 548.7 1042.84 548.94V546.22C1042.48 546.16 1042.16 546.12 1041.74 546.12C1039.62 546.12 1038.48 547.26 1037.74 548.46H1037.7V546.4H1034.94V557ZM1055.58 549.56C1055.58 548.18 1055.42 546 1049.88 546C1046.74 546 1044.68 546.86 1044.28 549.64H1046.98C1047.08 548.46 1048.06 547.88 1049.88 547.88C1051.48 547.88 1052.88 548.18 1052.88 549.4C1052.88 550.22 1052.46 550.36 1048.5 550.74C1046.74 550.9 1043.74 551.16 1043.74 554.08C1043.74 556.16 1045.3 557.4 1048.06 557.4C1051.16 557.4 1052.5 556.46 1053.04 555.94C1053.12 556.34 1053.32 557.3 1055.12 557.3C1056.06 557.3 1056.54 557.16 1057.08 557.06V555.12C1056.86 555.16 1056.44 555.18 1056.18 555.18C1056 555.18 1055.58 555.16 1055.58 554.58V549.56ZM1052.82 552.74C1052.82 555.08 1050.32 555.64 1048.84 555.64C1047.9 555.64 1046.62 555.38 1046.62 553.98C1046.62 553.08 1047.12 552.62 1049.2 552.38C1051.16 552.16 1052.02 552.06 1052.82 551.72V552.74ZM1057.74 553.68C1057.84 556.92 1061.42 557.4 1063.68 557.4C1066.96 557.4 1069.54 556.48 1069.54 553.78C1069.54 551.32 1067.26 550.98 1063.78 550.48C1061.12 550.1 1060.86 549.96 1060.86 549.1C1060.86 548.54 1061.7 547.88 1063.26 547.88C1064.2 547.88 1066.04 548.06 1066.26 549.64H1069.14C1068.98 546.24 1065.04 546 1063.4 546C1061.62 546 1058.1 546.4 1058.1 549.42C1058.1 551.84 1059.82 552.22 1063.1 552.66C1066.08 553.06 1066.54 553.34 1066.54 554.16C1066.54 555.16 1065.04 555.52 1063.66 555.52C1062.66 555.52 1060.82 555.28 1060.74 553.68H1057.74ZM1083.79 552.4V552C1083.79 548.9 1081.99 546 1077.29 546C1073.53 546 1070.91 548.26 1070.91 551.8C1070.91 554.62 1072.69 557.4 1077.47 557.4C1081.51 557.4 1082.95 555.06 1083.55 553.88H1080.55C1080.01 554.76 1079.21 555.4 1077.39 555.4C1074.65 555.4 1073.85 553.58 1073.79 552.4H1083.79ZM1073.79 550.64C1074.25 548.48 1076.05 547.88 1077.33 547.88C1078.69 547.88 1080.57 548.52 1080.91 550.64H1073.79Z" fill="#23537B"/>
<path d="M1020.46 740H1023.46V734.36H1028.56C1030.76 734.36 1031.04 735.8 1031.04 737.84C1031.04 738.88 1031.18 739.6 1031.4 740H1034.64C1034.06 739.22 1034.04 737.62 1034.04 736.94C1034.04 734.92 1033.66 733.44 1031.96 733.08V733.04C1033.3 732.62 1034.32 731.46 1034.32 729.6C1034.32 727.38 1033.14 725.72 1029.5 725.72H1020.46V740ZM1023.46 732.12V727.96H1028.64C1030.22 727.96 1031.2 728.54 1031.2 730.02C1031.2 731.62 1030.3 732.12 1028.64 732.12H1023.46ZM1048.97 735.4V735C1048.97 731.9 1047.17 729 1042.47 729C1038.71 729 1036.09 731.26 1036.09 734.8C1036.09 737.62 1037.87 740.4 1042.65 740.4C1046.69 740.4 1048.13 738.06 1048.73 736.88H1045.73C1045.19 737.76 1044.39 738.4 1042.57 738.4C1039.83 738.4 1039.03 736.58 1038.97 735.4H1048.97ZM1038.97 733.64C1039.43 731.48 1041.23 730.88 1042.51 730.88C1043.87 730.88 1045.75 731.52 1046.09 733.64H1038.97ZM1053.28 734.74C1053.28 732.98 1054.26 731.24 1056.86 731.24C1059.44 731.24 1060.42 732.98 1060.42 734.74C1060.42 736.54 1059.44 738.28 1056.86 738.28C1054.26 738.28 1053.28 736.54 1053.28 734.74ZM1063.06 725.48H1060.3V730.92H1060.26C1059.44 729.64 1057.86 729.12 1056.2 729.12C1052.16 729.12 1050.4 732.06 1050.4 734.74C1050.4 737.46 1052.16 740.4 1056.2 740.4C1058.4 740.4 1060.06 739.18 1060.26 738.54H1060.3V740H1063.06V725.48ZM1067.72 734.7C1067.72 732.86 1068.72 731.12 1071.4 731.12C1074.08 731.12 1075.08 732.86 1075.08 734.7C1075.08 736.54 1074.08 738.28 1071.4 738.28C1068.72 738.28 1067.72 736.54 1067.72 734.7ZM1064.84 734.7C1064.84 737.62 1066.66 740.4 1071.4 740.4C1076.14 740.4 1077.96 737.62 1077.96 734.7C1077.96 731.78 1076.14 729 1071.4 729C1066.66 729 1064.84 731.78 1064.84 734.7Z" fill="#23537B"/>
<path d="M1023.46 816.96H1027.52C1029.2 816.96 1032.14 817.24 1032.14 821.88C1032.14 826.06 1029.84 826.76 1027.68 826.76H1023.46V816.96ZM1020.46 829H1028.88C1033.74 829 1035.14 825.08 1035.14 822C1035.14 817.92 1033.76 814.72 1028.16 814.72H1020.46V829ZM1049.69 824.4V824C1049.69 820.9 1047.89 818 1043.19 818C1039.43 818 1036.81 820.26 1036.81 823.8C1036.81 826.62 1038.59 829.4 1043.37 829.4C1047.41 829.4 1048.85 827.06 1049.45 825.88H1046.45C1045.91 826.76 1045.11 827.4 1043.29 827.4C1040.55 827.4 1039.75 825.58 1039.69 824.4H1049.69ZM1039.69 822.64C1040.15 820.48 1041.95 819.88 1043.23 819.88C1044.59 819.88 1046.47 820.52 1046.81 822.64H1039.69ZM1051.66 829H1054.42V814.48H1051.66V829ZM1069.28 824.4V824C1069.28 820.9 1067.48 818 1062.78 818C1059.02 818 1056.4 820.26 1056.4 823.8C1056.4 826.62 1058.18 829.4 1062.96 829.4C1067 829.4 1068.44 827.06 1069.04 825.88H1066.04C1065.5 826.76 1064.7 827.4 1062.88 827.4C1060.14 827.4 1059.34 825.58 1059.28 824.4H1069.28ZM1059.28 822.64C1059.74 820.48 1061.54 819.88 1062.82 819.88C1064.18 819.88 1066.06 820.52 1066.4 822.64H1059.28ZM1072.03 826.04C1072.03 828.04 1072.29 829.24 1075.65 829.24C1076.49 829.24 1077.03 829.18 1077.77 829.08V827.08C1077.11 827.1 1076.47 827.12 1075.79 827.12C1074.85 827.12 1074.79 826.46 1074.79 825.24V820.4H1077.67V818.4H1074.79V815.12H1072.03V818.4H1069.83V820.4H1072.03V826.04ZM1091.86 824.4V824C1091.86 820.9 1090.06 818 1085.36 818C1081.6 818 1078.98 820.26 1078.98 823.8C1078.98 826.62 1080.76 829.4 1085.54 829.4C1089.58 829.4 1091.02 827.06 1091.62 825.88H1088.62C1088.08 826.76 1087.28 827.4 1085.46 827.4C1082.72 827.4 1081.92 825.58 1081.86 824.4H1091.86ZM1081.86 822.64C1082.32 820.48 1084.12 819.88 1085.4 819.88C1086.76 819.88 1088.64 820.52 1088.98 822.64H1081.86Z" fill="#23537B"/>
<path d="M1161.36 361V348.96H1156V346.72H1169.72V348.96H1164.36V361H1161.36ZM1170.83 361V346.48H1173.59V352H1173.63C1174.53 350.86 1175.93 350.12 1177.81 350.12C1180.09 350.12 1182.31 350.94 1182.31 353.8V361H1179.55V354.68C1179.55 353.54 1179.17 352.24 1176.89 352.24C1175.45 352.24 1173.59 353.04 1173.59 355.3V361H1170.83ZM1184.62 361V350.4H1187.38V361H1184.62ZM1184.62 348.72V346.48H1187.38V348.72H1184.62ZM1201.62 354.12H1198.74C1198.54 353.02 1197.38 352.12 1195.8 352.12C1193.24 352.12 1192.12 353.86 1192.12 355.7C1192.12 357.54 1193.12 359.28 1195.5 359.28C1197.64 359.28 1198.22 358.44 1198.8 356.94H1201.68C1201.04 361.34 1196.54 361.4 1195.8 361.4C1191.06 361.4 1189.24 358.62 1189.24 355.7C1189.24 352.28 1191.7 350 1195.8 350C1197.4 350 1201.04 350.54 1201.62 354.12ZM1203.39 361V346.48H1206.15V354.64L1211.05 350.4H1214.95L1210.05 354.4L1215.37 361H1211.65L1207.89 356.16L1206.15 357.58V361H1203.39ZM1215.99 361V350.4H1218.75V352H1218.79C1219.69 350.86 1221.09 350.12 1222.97 350.12C1225.25 350.12 1227.47 350.94 1227.47 353.8V361H1224.71V354.68C1224.71 353.54 1224.33 352.24 1222.05 352.24C1220.61 352.24 1218.75 353.04 1218.75 355.3V361H1215.99ZM1242.24 356.4H1232.24C1232.3 357.58 1233.1 359.4 1235.84 359.4C1237.66 359.4 1238.46 358.76 1239 357.88H1242C1241.4 359.06 1239.96 361.4 1235.92 361.4C1231.14 361.4 1229.36 358.62 1229.36 355.8C1229.36 352.26 1231.98 350 1235.74 350C1240.44 350 1242.24 352.9 1242.24 356V356.4ZM1232.24 354.64H1239.36C1239.02 352.52 1237.14 351.88 1235.78 351.88C1234.5 351.88 1232.7 352.48 1232.24 354.64ZM1243.59 357.68H1246.59C1246.67 359.28 1248.51 359.52 1249.51 359.52C1250.89 359.52 1252.39 359.16 1252.39 358.16C1252.39 357.34 1251.93 357.06 1248.95 356.66C1245.67 356.22 1243.95 355.84 1243.95 353.42C1243.95 350.4 1247.47 350 1249.25 350C1250.89 350 1254.83 350.24 1254.99 353.64H1252.11C1251.89 352.06 1250.05 351.88 1249.11 351.88C1247.55 351.88 1246.71 352.54 1246.71 353.1C1246.71 353.96 1246.97 354.1 1249.63 354.48C1253.11 354.98 1255.39 355.32 1255.39 357.78C1255.39 360.48 1252.81 361.4 1249.53 361.4C1247.27 361.4 1243.69 360.92 1243.59 357.68ZM1256.56 357.68H1259.56C1259.64 359.28 1261.48 359.52 1262.48 359.52C1263.86 359.52 1265.36 359.16 1265.36 358.16C1265.36 357.34 1264.9 357.06 1261.92 356.66C1258.64 356.22 1256.92 355.84 1256.92 353.42C1256.92 350.4 1260.44 350 1262.22 350C1263.86 350 1267.8 350.24 1267.96 353.64H1265.08C1264.86 352.06 1263.02 351.88 1262.08 351.88C1260.52 351.88 1259.68 352.54 1259.68 353.1C1259.68 353.96 1259.94 354.1 1262.6 354.48C1266.08 354.98 1268.36 355.32 1268.36 357.78C1268.36 360.48 1265.78 361.4 1262.5 361.4C1260.24 361.4 1256.66 360.92 1256.56 357.68Z" fill="#295275"/>
<path d="M228.4 206.48C228.4 218.2 249.44 212.04 249.44 219.12C249.44 222.24 246.04 223.32 242.4 223.32C237.48 223.32 234.36 221.52 234.2 217.76H227.72C227.8 223.76 231.92 227.8 242.2 227.8C248.28 227.8 255.92 225.88 255.92 218.52C255.92 206.32 234.64 212.76 234.64 206.04C234.64 203.36 237.28 202.12 241.28 202.12C246.28 202.12 248.28 204.52 248.48 206.72H254.96C254.2 198.44 245.4 197.64 241 197.64C234.04 197.64 228.4 200.12 228.4 206.48ZM258.888 227H264.408V220.16L267.888 217.32L275.408 227H282.848L272.208 213.8L282.008 205.8H274.208L264.408 214.28V197.96H258.888V227ZM309.164 217.8V217C309.164 210.8 305.564 205 296.164 205C288.644 205 283.404 209.52 283.404 216.6C283.404 222.24 286.964 227.8 296.524 227.8C304.604 227.8 307.484 223.12 308.684 220.76H302.684C301.604 222.52 300.004 223.8 296.364 223.8C290.884 223.8 289.284 220.16 289.164 217.8H309.164ZM289.164 214.28C290.084 209.96 293.684 208.76 296.244 208.76C298.964 208.76 302.724 210.04 303.404 214.28H289.164ZM314.671 221.08C314.671 225.08 315.191 227.48 321.911 227.48C323.591 227.48 324.671 227.36 326.151 227.16V223.16C324.831 223.2 323.551 223.24 322.191 223.24C320.311 223.24 320.191 221.92 320.191 219.48V209.8H325.951V205.8H320.191V199.24H314.671V205.8H310.271V209.8H314.671V221.08ZM353.08 213.24C351.92 206.08 344.64 205 341.44 205C333.24 205 328.32 209.56 328.32 216.4C328.32 222.24 331.96 227.8 341.44 227.8C342.92 227.8 351.92 227.68 353.2 218.88H347.44C346.28 221.88 345.12 223.56 340.84 223.56C336.08 223.56 334.08 220.08 334.08 216.4C334.08 212.72 336.32 209.24 341.44 209.24C344.6 209.24 346.92 211.04 347.32 213.24H353.08ZM356.623 227H362.143V215.6C362.143 211.08 365.863 209.48 368.743 209.48C373.303 209.48 374.063 212.08 374.063 214.36V227H379.583V212.6C379.583 206.88 375.143 205.24 370.583 205.24C366.823 205.24 364.023 206.72 362.223 209H362.143V197.96H356.623V227Z" fill="#23537B"/>
<path d="M161.7 257.74C161.7 254.56 164.52 253.32 168 253.32C170.2 253.32 174.6 253.72 174.98 257.86H171.74C171.64 256.76 170.64 255.56 168.14 255.56C166.14 255.56 164.82 256.18 164.82 257.52C164.82 260.88 175.46 257.66 175.46 263.76C175.46 267.44 171.64 268.4 168.6 268.4C163.46 268.4 161.4 266.38 161.36 263.38H164.6C164.68 265.26 166.24 266.16 168.7 266.16C170.52 266.16 172.22 265.62 172.22 264.06C172.22 260.52 161.7 263.6 161.7 257.74ZM176.944 268V253.48H179.704V261.64L184.604 257.4H188.504L183.604 261.4L188.924 268H185.204L181.444 263.16L179.704 264.58V268H176.944ZM202.082 263.4H192.082C192.142 264.58 192.942 266.4 195.682 266.4C197.502 266.4 198.302 265.76 198.842 264.88H201.842C201.242 266.06 199.802 268.4 195.762 268.4C190.982 268.4 189.202 265.62 189.202 262.8C189.202 259.26 191.822 257 195.582 257C200.282 257 202.082 259.9 202.082 263V263.4ZM192.082 261.64H199.202C198.862 259.52 196.982 258.88 195.622 258.88C194.342 258.88 192.542 259.48 192.082 261.64ZM204.835 265.04V259.4H202.635V257.4H204.835V254.12H207.595V257.4H210.475V259.4H207.595V264.24C207.595 265.46 207.655 266.12 208.595 266.12C209.275 266.12 209.915 266.1 210.575 266.08V268.08C209.835 268.18 209.295 268.24 208.455 268.24C205.095 268.24 204.835 267.04 204.835 265.04ZM224.04 261.12H221.16C220.96 260.02 219.8 259.12 218.22 259.12C215.66 259.12 214.54 260.86 214.54 262.7C214.54 264.54 215.54 266.28 217.92 266.28C220.06 266.28 220.64 265.44 221.22 263.94H224.1C223.46 268.34 218.96 268.4 218.22 268.4C213.48 268.4 211.66 265.62 211.66 262.7C211.66 259.28 214.12 257 218.22 257C219.82 257 223.46 257.54 224.04 261.12ZM225.811 268V253.48H228.571V259H228.611C229.511 257.86 230.911 257.12 232.791 257.12C235.071 257.12 237.291 257.94 237.291 260.8V268H234.531V261.68C234.531 260.54 234.151 259.24 231.871 259.24C230.431 259.24 228.571 260.04 228.571 262.3V268H225.811ZM257.934 260.56V265.58C257.934 266.16 258.354 266.18 258.534 266.18C258.794 266.18 259.214 266.16 259.434 266.12V268.06C258.894 268.16 258.414 268.3 257.474 268.3C255.674 268.3 255.474 267.34 255.394 266.94C254.854 267.46 253.514 268.4 250.414 268.4C247.654 268.4 246.094 267.16 246.094 265.08C246.094 262.16 249.094 261.9 250.854 261.74C254.814 261.36 255.234 261.22 255.234 260.4C255.234 259.18 253.834 258.88 252.234 258.88C250.414 258.88 249.434 259.46 249.334 260.64H246.634C247.034 257.86 249.094 257 252.234 257C257.774 257 257.934 259.18 257.934 260.56ZM255.174 263.74V262.72C254.374 263.06 253.514 263.16 251.554 263.38C249.474 263.62 248.974 264.08 248.974 264.98C248.974 266.38 250.254 266.64 251.194 266.64C252.674 266.64 255.174 266.08 255.174 263.74ZM260.636 268V257.4H263.396V259H263.436C264.336 257.86 265.736 257.12 267.616 257.12C269.896 257.12 272.116 257.94 272.116 260.8V268H269.356V261.68C269.356 260.54 268.976 259.24 266.696 259.24C265.256 259.24 263.396 260.04 263.396 262.3V268H260.636ZM281.458 268V257.4H284.218V268H281.458ZM281.458 255.72V253.48H284.218V255.72H281.458ZM287.394 265.04V259.4H285.194V257.4H287.394V254.12H290.154V257.4H293.034V259.4H290.154V264.24C290.154 265.46 290.214 266.12 291.154 266.12C291.834 266.12 292.474 266.1 293.134 266.08V268.08C292.394 268.18 291.854 268.24 291.014 268.24C287.654 268.24 287.394 267.04 287.394 265.04ZM307.219 263.4H297.219C297.279 264.58 298.079 266.4 300.819 266.4C302.639 266.4 303.439 265.76 303.979 264.88H306.979C306.379 266.06 304.939 268.4 300.899 268.4C296.119 268.4 294.339 265.62 294.339 262.8C294.339 259.26 296.959 257 300.719 257C305.419 257 307.219 259.9 307.219 263V263.4ZM297.219 261.64H304.339C303.999 259.52 302.119 258.88 300.759 258.88C299.479 258.88 297.679 259.48 297.219 261.64ZM317.352 268V261.68C317.352 260.58 317.212 259.24 314.752 259.24C313.792 259.24 311.872 259.78 311.872 262.1V268H309.112V257.4H311.872V259H311.912C312.812 257.86 314.212 257.12 316.092 257.12C317.332 257.12 319.092 257.34 319.832 259.08C320.512 258.1 321.912 257.12 324.132 257.12C325.832 257.12 328.352 257.72 328.352 260.96V268H325.592V261.68C325.592 260.58 325.452 259.24 322.992 259.24C322.032 259.24 320.112 259.78 320.112 262.1V268H317.352ZM340.048 262.7C340.048 264.54 341.048 266.28 343.728 266.28C346.408 266.28 347.408 264.54 347.408 262.7C347.408 260.86 346.408 259.12 343.728 259.12C341.048 259.12 340.048 260.86 340.048 262.7ZM337.168 262.7C337.168 259.78 338.988 257 343.728 257C348.468 257 350.288 259.78 350.288 262.7C350.288 265.62 348.468 268.4 343.728 268.4C338.988 268.4 337.168 265.62 337.168 262.7ZM352.061 268V257.4H354.821V259.46H354.861C355.601 258.26 356.741 257.12 358.861 257.12C359.281 257.12 359.601 257.16 359.961 257.22V259.94C359.201 259.7 358.681 259.68 358.201 259.68C356.801 259.68 354.821 260.42 354.821 262.88V268H352.061ZM379.73 260.56V265.58C379.73 266.16 380.15 266.18 380.33 266.18C380.59 266.18 381.01 266.16 381.23 266.12V268.06C380.69 268.16 380.21 268.3 379.27 268.3C377.47 268.3 377.27 267.34 377.19 266.94C376.65 267.46 375.31 268.4 372.21 268.4C369.45 268.4 367.89 267.16 367.89 265.08C367.89 262.16 370.89 261.9 372.65 261.74C376.61 261.36 377.03 261.22 377.03 260.4C377.03 259.18 375.63 258.88 374.03 258.88C372.21 258.88 371.23 259.46 371.13 260.64H368.43C368.83 257.86 370.89 257 374.03 257C379.57 257 379.73 259.18 379.73 260.56ZM376.97 263.74V262.72C376.17 263.06 375.31 263.16 373.35 263.38C371.27 263.62 370.77 264.08 370.77 264.98C370.77 266.38 372.05 266.64 372.99 266.64C374.47 266.64 376.97 266.08 376.97 263.74ZM388.924 264.68H391.924C392.004 266.28 393.844 266.52 394.844 266.52C396.224 266.52 397.724 266.16 397.724 265.16C397.724 264.34 397.264 264.06 394.284 263.66C391.004 263.22 389.284 262.84 389.284 260.42C389.284 257.4 392.804 257 394.584 257C396.224 257 400.164 257.24 400.324 260.64H397.444C397.224 259.06 395.384 258.88 394.444 258.88C392.884 258.88 392.044 259.54 392.044 260.1C392.044 260.96 392.304 261.1 394.964 261.48C398.444 261.98 400.724 262.32 400.724 264.78C400.724 267.48 398.144 268.4 394.864 268.4C392.604 268.4 389.024 267.92 388.924 264.68ZM402.513 268V257.4H405.273V268H402.513ZM402.513 255.72V253.48H405.273V255.72H402.513ZM408.449 265.04V259.4H406.249V257.4H408.449V254.12H411.209V257.4H414.089V259.4H411.209V264.24C411.209 265.46 411.269 266.12 412.209 266.12C412.889 266.12 413.529 266.1 414.189 266.08V268.08C413.449 268.18 412.909 268.24 412.069 268.24C408.709 268.24 408.449 267.04 408.449 265.04ZM415.733 264.48V257.4H418.493V263.44C418.493 265.06 418.873 266.28 421.233 266.28C422.453 266.28 424.453 265.48 424.453 263.22V257.4H427.213V268H424.453V266.52H424.413C423.513 267.66 422.113 268.4 420.233 268.4C417.953 268.4 415.733 267.58 415.733 264.48ZM440.824 260.56V265.58C440.824 266.16 441.244 266.18 441.424 266.18C441.684 266.18 442.104 266.16 442.324 266.12V268.06C441.784 268.16 441.304 268.3 440.364 268.3C438.564 268.3 438.364 267.34 438.284 266.94C437.744 267.46 436.404 268.4 433.304 268.4C430.544 268.4 428.984 267.16 428.984 265.08C428.984 262.16 431.984 261.9 433.744 261.74C437.704 261.36 438.124 261.22 438.124 260.4C438.124 259.18 436.724 258.88 435.124 258.88C433.304 258.88 432.324 259.46 432.224 260.64H429.524C429.924 257.86 431.984 257 435.124 257C440.664 257 440.824 259.18 440.824 260.56ZM438.064 263.74V262.72C437.264 263.06 436.404 263.16 434.444 263.38C432.364 263.62 431.864 264.08 431.864 264.98C431.864 266.38 433.144 266.64 434.084 266.64C435.564 266.64 438.064 266.08 438.064 263.74ZM444.386 265.04V259.4H442.186V257.4H444.386V254.12H447.146V257.4H450.026V259.4H447.146V264.24C447.146 265.46 447.206 266.12 448.146 266.12C448.826 266.12 449.466 266.1 450.126 266.08V268.08C449.386 268.18 448.846 268.24 448.006 268.24C444.646 268.24 444.386 267.04 444.386 265.04ZM451.751 268V257.4H454.511V268H451.751ZM451.751 255.72V253.48H454.511V255.72H451.751ZM459.247 262.7C459.247 264.54 460.247 266.28 462.927 266.28C465.607 266.28 466.607 264.54 466.607 262.7C466.607 260.86 465.607 259.12 462.927 259.12C460.247 259.12 459.247 260.86 459.247 262.7ZM456.367 262.7C456.367 259.78 458.187 257 462.927 257C467.667 257 469.487 259.78 469.487 262.7C469.487 265.62 467.667 268.4 462.927 268.4C458.187 268.4 456.367 265.62 456.367 262.7ZM471.261 268V257.4H474.021V259H474.061C474.961 257.86 476.361 257.12 478.241 257.12C480.521 257.12 482.741 257.94 482.741 260.8V268H479.981V261.68C479.981 260.54 479.601 259.24 477.321 259.24C475.881 259.24 474.021 260.04 474.021 262.3V268H471.261ZM492.863 265.04V259.4H490.663V257.4H492.863V254.12H495.623V257.4H498.503V259.4H495.623V264.24C495.623 265.46 495.683 266.12 496.623 266.12C497.303 266.12 497.943 266.1 498.603 266.08V268.08C497.863 268.18 497.323 268.24 496.483 268.24C493.123 268.24 492.863 267.04 492.863 265.04ZM500.147 268V253.48H502.907V259H502.947C503.847 257.86 505.247 257.12 507.127 257.12C509.407 257.12 511.627 257.94 511.627 260.8V268H508.867V261.68C508.867 260.54 508.487 259.24 506.207 259.24C504.767 259.24 502.907 260.04 502.907 262.3V268H500.147ZM525.238 260.56V265.58C525.238 266.16 525.658 266.18 525.838 266.18C526.098 266.18 526.518 266.16 526.738 266.12V268.06C526.198 268.16 525.718 268.3 524.778 268.3C522.978 268.3 522.778 267.34 522.698 266.94C522.158 267.46 520.818 268.4 517.718 268.4C514.958 268.4 513.398 267.16 513.398 265.08C513.398 262.16 516.398 261.9 518.158 261.74C522.118 261.36 522.538 261.22 522.538 260.4C522.538 259.18 521.138 258.88 519.538 258.88C517.718 258.88 516.738 259.46 516.638 260.64H513.938C514.338 257.86 516.398 257 519.538 257C525.078 257 525.238 259.18 525.238 260.56ZM522.478 263.74V262.72C521.678 263.06 520.818 263.16 518.858 263.38C516.778 263.62 516.278 264.08 516.278 264.98C516.278 266.38 517.558 266.64 518.498 266.64C519.978 266.64 522.478 266.08 522.478 263.74ZM528.8 265.04V259.4H526.6V257.4H528.8V254.12H531.56V257.4H534.44V259.4H531.56V264.24C531.56 265.46 531.62 266.12 532.56 266.12C533.24 266.12 533.88 266.1 534.54 266.08V268.08C533.8 268.18 533.26 268.24 532.42 268.24C529.06 268.24 528.8 267.04 528.8 265.04ZM546.736 267.82L541.796 257.4H544.796L548.196 264.98L551.516 257.4H554.456L548.676 269.88C547.836 271.7 547.156 272.04 544.856 272.04C544.396 272.04 543.676 272.02 543.136 272V269.88C543.356 269.9 543.916 269.92 544.516 269.92C545.256 269.92 545.796 269.76 546.116 269.1L546.736 267.82ZM557.763 262.7C557.763 264.54 558.763 266.28 561.443 266.28C564.123 266.28 565.123 264.54 565.123 262.7C565.123 260.86 564.123 259.12 561.443 259.12C558.763 259.12 557.763 260.86 557.763 262.7ZM554.883 262.7C554.883 259.78 556.703 257 561.443 257C566.183 257 568.003 259.78 568.003 262.7C568.003 265.62 566.183 268.4 561.443 268.4C556.703 268.4 554.883 265.62 554.883 262.7ZM569.776 264.48V257.4H572.536V263.44C572.536 265.06 572.916 266.28 575.276 266.28C576.496 266.28 578.496 265.48 578.496 263.22V257.4H581.256V268H578.496V266.52H578.456C577.556 267.66 576.156 268.4 574.276 268.4C571.996 268.4 569.776 267.58 569.776 264.48ZM593.498 268L589.478 257.4H592.478L595.198 265.16H595.238L597.778 257.4H600.658L603.198 265.16H603.238L605.958 257.4H608.958L604.938 268H601.818L599.238 260.64H599.198L596.618 268H593.498ZM610.247 268V257.4H613.007V268H610.247ZM610.247 255.72V253.48H613.007V255.72H610.247ZM614.783 264.68H617.783C617.863 266.28 619.703 266.52 620.703 266.52C622.083 266.52 623.583 266.16 623.583 265.16C623.583 264.34 623.123 264.06 620.143 263.66C616.863 263.22 615.143 262.84 615.143 260.42C615.143 257.4 618.663 257 620.443 257C622.083 257 626.023 257.24 626.183 260.64H623.303C623.083 259.06 621.243 258.88 620.303 258.88C618.743 258.88 617.903 259.54 617.903 260.1C617.903 260.96 618.163 261.1 620.823 261.48C624.303 261.98 626.583 262.32 626.583 264.78C626.583 267.48 624.003 268.4 620.723 268.4C618.463 268.4 614.883 267.92 614.783 264.68ZM628.292 268V253.48H631.052V259H631.092C631.992 257.86 633.392 257.12 635.272 257.12C637.552 257.12 639.772 257.94 639.772 260.8V268H637.012V261.68C637.012 260.54 636.632 259.24 634.352 259.24C632.912 259.24 631.052 260.04 631.052 262.3V268H628.292ZM649.894 265.04V259.4H647.694V257.4H649.894V254.12H652.654V257.4H655.534V259.4H652.654V264.24C652.654 265.46 652.714 266.12 653.654 266.12C654.334 266.12 654.974 266.1 655.634 266.08V268.08C654.894 268.18 654.354 268.24 653.514 268.24C650.154 268.24 649.894 267.04 649.894 265.04ZM659.599 262.7C659.599 264.54 660.599 266.28 663.279 266.28C665.959 266.28 666.959 264.54 666.959 262.7C666.959 260.86 665.959 259.12 663.279 259.12C660.599 259.12 659.599 260.86 659.599 262.7ZM656.719 262.7C656.719 259.78 658.539 257 663.279 257C668.019 257 669.839 259.78 669.839 262.7C669.839 265.62 668.019 268.4 663.279 268.4C658.539 268.4 656.719 265.62 656.719 262.7ZM678.103 264.68H681.103C681.183 266.28 683.023 266.52 684.023 266.52C685.403 266.52 686.903 266.16 686.903 265.16C686.903 264.34 686.443 264.06 683.463 263.66C680.183 263.22 678.463 262.84 678.463 260.42C678.463 257.4 681.983 257 683.763 257C685.403 257 689.343 257.24 689.503 260.64H686.623C686.403 259.06 684.563 258.88 683.623 258.88C682.063 258.88 681.223 259.54 681.223 260.1C681.223 260.96 681.483 261.1 684.143 261.48C687.623 261.98 689.903 262.32 689.903 264.78C689.903 267.48 687.323 268.4 684.043 268.4C681.783 268.4 678.203 267.92 678.103 264.68ZM704.152 263.4H694.152C694.212 264.58 695.012 266.4 697.752 266.4C699.572 266.4 700.372 265.76 700.912 264.88H703.912C703.312 266.06 701.872 268.4 697.832 268.4C693.052 268.4 691.272 265.62 691.272 262.8C691.272 259.26 693.892 257 697.652 257C702.352 257 704.152 259.9 704.152 263V263.4ZM694.152 261.64H701.272C700.932 259.52 699.052 258.88 697.692 258.88C696.412 258.88 694.612 259.48 694.152 261.64ZM718.586 263.4H708.586C708.646 264.58 709.446 266.4 712.186 266.4C714.006 266.4 714.806 265.76 715.346 264.88H718.346C717.746 266.06 716.306 268.4 712.266 268.4C707.486 268.4 705.706 265.62 705.706 262.8C705.706 259.26 708.326 257 712.086 257C716.786 257 718.586 259.9 718.586 263V263.4ZM708.586 261.64H715.706C715.366 259.52 713.486 258.88 712.126 258.88C710.846 258.88 709.046 259.48 708.586 261.64ZM727.591 268V257.4H730.351V268H727.591ZM727.591 255.72V253.48H730.351V255.72H727.591ZM732.667 268V257.4H735.427V259H735.467C736.367 257.86 737.767 257.12 739.647 257.12C741.927 257.12 744.147 257.94 744.147 260.8V268H741.387V261.68C741.387 260.54 741.007 259.24 738.727 259.24C737.287 259.24 735.427 260.04 735.427 262.3V268H732.667ZM754.269 265.04V259.4H752.069V257.4H754.269V254.12H757.029V257.4H759.909V259.4H757.029V264.24C757.029 265.46 757.089 266.12 758.029 266.12C758.709 266.12 759.349 266.1 760.009 266.08V268.08C759.269 268.18 758.729 268.24 757.889 268.24C754.529 268.24 754.269 267.04 754.269 265.04ZM761.554 268V253.48H764.314V259H764.354C765.254 257.86 766.654 257.12 768.534 257.12C770.814 257.12 773.034 257.94 773.034 260.8V268H770.274V261.68C770.274 260.54 769.894 259.24 767.614 259.24C766.174 259.24 764.314 260.04 764.314 262.3V268H761.554ZM787.805 263.4H777.805C777.865 264.58 778.665 266.4 781.405 266.4C783.225 266.4 784.025 265.76 784.565 264.88H787.565C786.965 266.06 785.525 268.4 781.485 268.4C776.705 268.4 774.925 265.62 774.925 262.8C774.925 259.26 777.545 257 781.305 257C786.005 257 787.805 259.9 787.805 263V263.4ZM777.805 261.64H784.925C784.585 259.52 782.705 258.88 781.345 258.88C780.065 258.88 778.265 259.48 777.805 261.64ZM800.429 268L795.589 257.4H798.709L801.869 265.28L805.149 257.4H808.269L803.429 268H800.429ZM809.407 268V257.4H812.167V268H809.407ZM809.407 255.72V253.48H812.167V255.72H809.407ZM816.903 262.74C816.903 264.54 817.883 266.28 820.483 266.28C823.063 266.28 824.043 264.54 824.043 262.74C824.043 260.98 823.063 259.24 820.483 259.24C817.883 259.24 816.903 260.98 816.903 262.74ZM826.683 253.48V268H823.923V266.54H823.883C823.683 267.18 822.023 268.4 819.823 268.4C815.783 268.4 814.023 265.46 814.023 262.74C814.023 260.06 815.783 257.12 819.823 257.12C821.483 257.12 823.063 257.64 823.883 258.92H823.923V253.48H826.683ZM841.457 263.4H831.457C831.517 264.58 832.317 266.4 835.057 266.4C836.877 266.4 837.677 265.76 838.217 264.88H841.217C840.617 266.06 839.177 268.4 835.137 268.4C830.357 268.4 828.577 265.62 828.577 262.8C828.577 259.26 831.197 257 834.957 257C839.657 257 841.457 259.9 841.457 263V263.4ZM831.457 261.64H838.577C838.237 259.52 836.357 258.88 834.997 258.88C833.717 258.88 831.917 259.48 831.457 261.64ZM845.77 262.7C845.77 264.54 846.77 266.28 849.45 266.28C852.13 266.28 853.13 264.54 853.13 262.7C853.13 260.86 852.13 259.12 849.45 259.12C846.77 259.12 845.77 260.86 845.77 262.7ZM842.89 262.7C842.89 259.78 844.71 257 849.45 257C854.19 257 856.01 259.78 856.01 262.7C856.01 265.62 854.19 268.4 849.45 268.4C844.71 268.4 842.89 265.62 842.89 262.7ZM858.624 268V265.16H861.744V268H858.624Z" fill="#23537B"/>
<path d="M172.417 191.352C170.099 192.268 167.904 193.796 165.342 196.362C160.586 201.128 159 205.1 159 212.004C159 218.908 160.586 222.88 165.342 227.646C170.038 232.289 174.063 234 180.588 234C186.992 234 187.846 233.206 188.334 226.729C188.76 220.13 189.187 219.703 196.079 219.397C199.006 219.336 201.75 218.908 202.177 218.603C203.519 217.503 203.153 207.727 201.567 203.633C199.799 198.745 194.188 193.124 189.309 191.352C184.552 189.519 177.112 189.58 172.417 191.352ZM183.272 195.018C183.699 195.446 184.004 196.484 184.004 197.34C184.004 199.356 182.967 200.395 180.954 200.395C178.942 200.395 177.905 199.356 177.905 197.34C177.905 196.484 178.21 195.446 178.637 195.018C179.552 194.101 182.357 194.101 183.272 195.018ZM172.904 199.295C173.819 200.211 173.819 203.022 172.904 203.939C172.478 204.366 171.441 204.672 170.587 204.672C169.733 204.672 168.697 204.366 168.27 203.939C167.355 203.022 167.355 200.211 168.27 199.295C169.184 198.378 171.99 198.378 172.904 199.295ZM193.639 199.295C194.066 199.723 194.371 200.761 194.371 201.617C194.371 203.633 193.334 204.672 191.322 204.672C190.468 204.672 189.431 204.366 189.004 203.939C188.577 203.511 188.273 202.472 188.273 201.617C188.273 200.761 188.577 199.723 189.004 199.295C189.919 198.378 192.724 198.378 193.639 199.295ZM168.636 209.682C169.55 210.599 169.55 213.409 168.636 214.326C168.209 214.753 167.172 215.059 166.318 215.059C165.464 215.059 164.428 214.753 164.001 214.326C163.086 213.409 163.086 210.599 164.001 209.682C164.428 209.254 165.464 208.949 166.318 208.949C167.172 208.949 168.209 209.254 168.636 209.682ZM197.908 209.682C198.335 210.11 198.64 211.148 198.64 212.004C198.64 214.02 197.603 215.059 195.591 215.059C193.578 215.059 192.541 214.02 192.541 212.004C192.541 209.988 193.578 208.949 195.591 208.949C196.444 208.949 197.481 209.254 197.908 209.682ZM182.906 222.819C184.248 224.041 184.309 227.096 182.967 228.623C181.747 229.967 178.698 230.028 177.173 228.684C175.832 227.462 175.771 224.407 177.112 222.88C178.332 221.536 181.381 221.474 182.906 222.819Z" fill="#23537B"/>
<path d="M1029.94 610.95H1022.47V603.481M1022.9 623.433C1024.3 625.576 1026.34 627.217 1028.73 628.114C1031.12 629.011 1033.74 629.117 1036.2 628.417C1038.66 627.717 1040.83 626.247 1042.39 624.224C1043.95 622.2 1044.82 619.729 1044.87 617.174C1044.93 614.619 1044.16 612.114 1042.68 610.027C1041.21 607.94 1039.1 606.381 1036.68 605.579C1034.25 604.777 1031.63 604.773 1029.2 605.569C1026.77 606.366 1024.66 607.92 1023.18 610.003" stroke="#23537B" stroke-width="2.98747" stroke-linecap="round" stroke-linejoin="round"/>
<path d="M1043.65 329.19C1039.95 326.501 1037.32 326.559 1036.33 326.721C1036.19 326.745 1036.06 326.796 1035.94 326.87C1035.82 326.945 1035.72 327.042 1035.64 327.156L1026.63 339.585L1022.22 345.675C1021.68 346.42 1021.37 347.305 1021.32 348.224L1020.74 359.191C1020.73 359.373 1020.77 359.554 1020.85 359.719C1020.93 359.883 1021.04 360.026 1021.19 360.133C1021.34 360.24 1021.51 360.309 1021.69 360.332C1021.87 360.356 1022.05 360.334 1022.22 360.269L1032.47 356.35C1033.34 356.018 1034.09 355.443 1034.63 354.694L1038.23 349.731L1048.05 336.181C1048.13 336.063 1048.19 335.93 1048.23 335.788C1048.26 335.646 1048.27 335.499 1048.24 335.356C1048.08 334.33 1047.29 331.842 1043.65 329.19ZM1032.51 354.158L1028.52 355.696C1028.45 355.726 1028.36 355.73 1028.29 355.708C1028.21 355.686 1028.14 355.64 1028.09 355.575C1027.49 354.808 1026.79 354.131 1025.99 353.567C1025.21 352.988 1024.35 352.525 1023.44 352.19C1023.36 352.163 1023.3 352.111 1023.25 352.044C1023.21 351.976 1023.19 351.896 1023.19 351.816L1023.43 347.553L1024.5 346.081C1024.5 346.081 1026.9 345.751 1030.03 348.027C1033.15 350.301 1033.58 352.684 1033.58 352.684L1032.51 354.158Z" fill="#F1F1F1"/>
<path d="M1035.91 700.95H1043.38V693.481M1042.95 713.433C1041.55 715.576 1039.51 717.217 1037.12 718.114C1034.73 719.011 1032.11 719.117 1029.65 718.417C1027.19 717.717 1025.02 716.247 1023.46 714.224C1021.9 712.2 1021.03 709.729 1020.98 707.174C1020.92 704.619 1021.69 702.114 1023.17 700.027C1024.64 697.94 1026.75 696.381 1029.17 695.579C1031.6 694.777 1034.22 694.773 1036.65 695.569C1039.08 696.366 1041.18 697.92 1042.66 700.003" stroke="#23537B" stroke-width="2.98747" stroke-linecap="round" stroke-linejoin="round"/>
<path d="M1023.81 809.879C1022.93 809.879 1022.18 809.564 1021.55 808.935C1020.92 808.307 1020.6 807.551 1020.6 806.67V785.813H1019V782.604H1027.02V781H1036.65V782.604H1044.67V785.813H1043.07V806.67C1043.07 807.553 1042.75 808.308 1042.12 808.937C1041.49 809.566 1040.74 809.88 1039.86 809.879H1023.81ZM1027.02 803.461H1030.23V789.022H1027.02V803.461ZM1033.44 803.461H1036.65V789.022H1033.44V803.461Z" fill="#23537B"/>
<path d="M1260.75 793.371H1251.38V802.746C1251.38 803.244 1251.18 803.721 1250.83 804.072C1250.47 804.424 1250 804.621 1249.5 804.621C1249 804.621 1248.53 804.424 1248.17 804.072C1247.82 803.721 1247.62 803.244 1247.62 802.746V793.371H1238.25C1237.75 793.371 1237.28 793.174 1236.92 792.822C1236.57 792.471 1236.38 791.994 1236.38 791.496C1236.38 790.999 1236.57 790.522 1236.92 790.171C1237.28 789.819 1237.75 789.621 1238.25 789.621H1247.62V780.246C1247.62 779.749 1247.82 779.272 1248.17 778.921C1248.53 778.569 1249 778.371 1249.5 778.371C1250 778.371 1250.47 778.569 1250.83 778.921C1251.18 779.272 1251.38 779.749 1251.38 780.246V789.621H1260.75C1261.25 789.621 1261.72 789.819 1262.08 790.171C1262.43 790.522 1262.62 790.999 1262.62 791.496C1262.62 791.994 1262.43 792.471 1262.08 792.822C1261.72 793.174 1261.25 793.371 1260.75 793.371Z" fill="#808080"/>
<line x1="1157.23" y1="386.772" x2="1274.77" y2="386.772" stroke="#808080" stroke-width="2.45632" stroke-linecap="round"/>
<line x1="1157.1" y1="386.897" x2="1221.9" y2="386.897" stroke="#1A1A1A" stroke-width="2.2052" stroke-linecap="round"/>
<circle cx="1226.5" cy="386.5" r="8.5" fill="#1A1A1A"/>
<g clip-path="url(#clip0_333_2229)">
<path d="M1034.26 420.238L1034.47 420.351L1046.49 427.288C1047.16 427.676 1047.66 428.303 1047.89 429.044C1048.12 429.785 1048.07 430.586 1047.73 431.286L1047.62 431.5L1038.37 447.521C1037.98 448.193 1037.35 448.694 1036.61 448.924C1035.87 449.154 1035.07 449.096 1034.37 448.762L1034.16 448.65L1022.14 441.712C1021.47 441.324 1020.97 440.697 1020.74 439.956C1020.51 439.214 1020.57 438.414 1020.9 437.713L1021.01 437.5L1027.95 425.485L1025.28 423.943C1024.94 423.748 1024.68 423.428 1024.57 423.05C1024.45 422.672 1024.49 422.265 1024.67 421.912C1024.84 421.559 1025.15 421.287 1025.52 421.153C1025.89 421.019 1026.3 421.033 1026.66 421.191L1026.82 421.273L1029.49 422.815L1030.26 421.479C1030.63 420.844 1031.21 420.36 1031.9 420.114C1032.59 419.869 1033.35 419.877 1034.03 420.138L1034.26 420.238ZM1048.3 433.312L1048.6 432.959L1048.72 433.093L1049.03 433.455L1049.3 433.794L1049.6 434.192L1049.92 434.63C1050.44 435.384 1050.92 436.233 1050.92 436.813C1050.92 437.426 1050.67 438.014 1050.24 438.448C1049.81 438.882 1049.22 439.125 1048.6 439.125C1047.99 439.125 1047.4 438.882 1046.97 438.448C1046.54 438.014 1046.29 437.426 1046.29 436.813C1046.29 436.116 1046.98 435.032 1047.61 434.192L1047.91 433.794L1048.3 433.312ZM1032.93 423.021L1032.16 424.356L1033.5 425.127C1033.85 425.333 1034.1 425.669 1034.21 426.063C1034.31 426.457 1034.26 426.875 1034.05 427.228C1033.85 427.58 1033.51 427.838 1033.12 427.945C1032.73 428.051 1032.31 427.998 1031.96 427.797L1030.62 427.026L1028.09 431.417H1044.11L1044.95 429.959L1032.93 423.021Z" fill="#23537B"/>
</g>
<g clip-path="url(#clip1_333_2229)">
<path fill-rule="evenodd" clip-rule="evenodd" d="M1021.63 527.21L1032.27 508.634C1032.62 508.019 1033.2 507.568 1033.89 507.382C1034.57 507.196 1035.3 507.29 1035.92 507.642L1045.21 512.963C1045.82 513.316 1046.27 513.899 1046.46 514.583C1046.65 515.268 1046.55 515.999 1046.2 516.615L1035.56 535.191C1035.21 535.806 1034.62 536.257 1033.94 536.443C1033.25 536.629 1032.52 536.535 1031.91 536.182L1022.62 530.862C1022 530.509 1021.55 529.926 1021.37 529.241C1021.18 528.557 1021.27 527.826 1021.63 527.21ZM1033.24 533.86L1035.9 529.217L1026.61 523.896L1023.95 528.54L1033.24 533.86Z" fill="#23537B"/>
</g>
<rect x="996" y="865.039" width="321" height="48" rx="5" stroke="#23537B" stroke-width="4"/>
<path d="M1117.2 885.74C1117.2 882.56 1120.02 881.32 1123.5 881.32C1125.7 881.32 1130.1 881.72 1130.48 885.86H1127.24C1127.14 884.76 1126.14 883.56 1123.64 883.56C1121.64 883.56 1120.32 884.18 1120.32 885.52C1120.32 888.88 1130.96 885.66 1130.96 891.76C1130.96 895.44 1127.14 896.4 1124.1 896.4C1118.96 896.4 1116.9 894.38 1116.86 891.38H1120.1C1120.18 893.26 1121.74 894.16 1124.2 894.16C1126.02 894.16 1127.72 893.62 1127.72 892.06C1127.72 888.52 1117.2 891.6 1117.2 885.74ZM1144.98 891.4H1134.98C1135.04 892.58 1135.84 894.4 1138.58 894.4C1140.4 894.4 1141.2 893.76 1141.74 892.88H1144.74C1144.14 894.06 1142.7 896.4 1138.66 896.4C1133.88 896.4 1132.1 893.62 1132.1 890.8C1132.1 887.26 1134.72 885 1138.48 885C1143.18 885 1144.98 887.9 1144.98 891V891.4ZM1134.98 889.64H1142.1C1141.76 887.52 1139.88 886.88 1138.52 886.88C1137.24 886.88 1135.44 887.48 1134.98 889.64ZM1158.26 888.56V893.58C1158.26 894.16 1158.68 894.18 1158.86 894.18C1159.12 894.18 1159.54 894.16 1159.76 894.12V896.06C1159.22 896.16 1158.74 896.3 1157.8 896.3C1156 896.3 1155.8 895.34 1155.72 894.94C1155.18 895.46 1153.84 896.4 1150.74 896.4C1147.98 896.4 1146.42 895.16 1146.42 893.08C1146.42 890.16 1149.42 889.9 1151.18 889.74C1155.14 889.36 1155.56 889.22 1155.56 888.4C1155.56 887.18 1154.16 886.88 1152.56 886.88C1150.74 886.88 1149.76 887.46 1149.66 888.64H1146.96C1147.36 885.86 1149.42 885 1152.56 885C1158.1 885 1158.26 887.18 1158.26 888.56ZM1155.5 891.74V890.72C1154.7 891.06 1153.84 891.16 1151.88 891.38C1149.8 891.62 1149.3 892.08 1149.3 892.98C1149.3 894.38 1150.58 894.64 1151.52 894.64C1153 894.64 1155.5 894.08 1155.5 891.74ZM1160.96 896V885.4H1163.72V887.46H1163.76C1164.5 886.26 1165.64 885.12 1167.76 885.12C1168.18 885.12 1168.5 885.16 1168.86 885.22V887.94C1168.1 887.7 1167.58 887.68 1167.1 887.68C1165.7 887.68 1163.72 888.42 1163.72 890.88V896H1160.96ZM1182.14 889.12H1179.26C1179.06 888.02 1177.9 887.12 1176.32 887.12C1173.76 887.12 1172.64 888.86 1172.64 890.7C1172.64 892.54 1173.64 894.28 1176.02 894.28C1178.16 894.28 1178.74 893.44 1179.32 891.94H1182.2C1181.56 896.34 1177.06 896.4 1176.32 896.4C1171.58 896.4 1169.76 893.62 1169.76 890.7C1169.76 887.28 1172.22 885 1176.32 885C1177.92 885 1181.56 885.54 1182.14 889.12ZM1183.91 896V881.48H1186.67V887H1186.71C1187.61 885.86 1189.01 885.12 1190.89 885.12C1193.17 885.12 1195.39 885.94 1195.39 888.8V896H1192.63V889.68C1192.63 888.54 1192.25 887.24 1189.97 887.24C1188.53 887.24 1186.67 888.04 1186.67 890.3V896H1183.91Z" fill="#23537B"/>
<path d="M1077.73 892.713L1082.58 897.125L1080.98 898.582L1076.13 894.17C1074.39 895.439 1072.18 896.198 1069.78 896.198C1064.16 896.198 1059.6 892.045 1059.6 886.927C1059.6 881.809 1064.16 877.656 1069.78 877.656C1075.4 877.656 1079.96 881.809 1079.96 886.927C1079.96 889.115 1079.13 891.127 1077.73 892.713ZM1075.46 891.949C1076.85 890.651 1077.7 888.88 1077.7 886.927C1077.7 882.943 1074.16 879.716 1069.78 879.716C1065.41 879.716 1061.87 882.943 1061.87 886.927C1061.87 890.911 1065.41 894.138 1069.78 894.138C1071.93 894.138 1073.87 893.363 1075.29 892.103L1075.46 891.949Z" fill="#23537B"/>
<path d="M386.764 487.991C371.177 487.991 352.896 488.995 342.147 502.188C328.131 519.389 323.518 541.991 321.055 563.435C316.288 604.936 322.894 635.13 365.672 651.047C394.985 661.955 438.888 665.102 460.585 637.865C480.501 612.865 482.981 577.671 479.649 547.211C475.436 508.691 451.526 484.321 419.619 466.088" stroke="#1A1A1A" stroke-width="5" stroke-linecap="round"/>
<path d="M361.771 592.156C361.771 630.049 426.819 621.925 446.714 609.491" stroke="#1A1A1A" stroke-width="5" stroke-linecap="round"/>
<path d="M379.107 543.617C389.254 543.617 383.218 528.015 374.773 528.015C367.525 528.015 368.202 543.617 377.373 543.617" stroke="#1A1A1A" stroke-width="5" stroke-linecap="round"/>
<path d="M438.046 529.749C435.042 530.124 436.313 536.919 436.313 539.283C436.313 543.703 444.385 541.883 447.581 541.883C451.798 541.883 450.352 534.567 450.181 531.482C450.063 529.358 441.895 528.015 439.78 528.015" stroke="#1A1A1A" stroke-width="5" stroke-linecap="round"/>
<path d="M498.72 640.694C498.72 650.389 498.72 660.084 498.72 669.779C498.72 674.733 496.692 684.495 499.49 688.848C502.657 693.774 511.098 699.109 516.055 702.138C539.234 716.303 570.618 707.507 579.81 680.95C581.853 675.05 582.636 652.715 579.329 646.761C577.299 643.107 577.963 641.435 572.78 640.694C554.294 638.053 535.479 637.227 516.825 637.227C510.79 637.227 504.755 637.227 498.72 637.227" stroke="#1A1A1A" stroke-width="5" stroke-linecap="round"/>
<path d="M583.662 677.098C590.983 677.098 594.064 677.454 594.064 669.297C594.064 662.958 589.541 659.763 583.662 659.763" stroke="#1A1A1A" stroke-width="5" stroke-linecap="round"/>
<path d="M770.883 502.012C760.697 502.012 750.101 501.154 739.969 502.301C716.852 504.918 698.81 528.819 690.756 549.01C677.268 582.825 670.137 641.531 715.41 654.466C748.393 663.89 780.719 651.5 804.494 627.115C826.765 604.273 834.41 562.833 830.786 532.253C828.521 513.144 817.085 494.609 802.086 482.944" stroke="#1A1A1A" stroke-width="5" stroke-linecap="round"/>
<path d="M705.009 592.156C705.009 602.582 709.796 605.402 719.937 606.794C741.994 609.822 765.971 609.042 783.018 593.889" stroke="#1A1A1A" stroke-width="5" stroke-linecap="round"/>
<path d="M717.373 550.346C717.373 557.344 728.163 555.366 727.716 547.76C727.355 541.62 717.373 538.326 717.373 546.467" stroke="#1A1A1A" stroke-width="5" stroke-linecap="round"/>
<path d="M766.501 545.175C766.501 548.622 766.501 552.07 766.501 555.517C766.501 562.904 779.429 560.481 779.429 552.932C779.429 543.818 775.925 543.882 767.793 543.882" stroke="#1A1A1A" stroke-width="5" stroke-linecap="round"/>
<rect width="1512" height="109" fill="#23537B"/>
<path d="M98.4873 57.04C97.954 59.4133 96.9273 61.5467 95.4073 63.44C93.3007 66.1067 90.6473 67.44 87.4473 67.44C84.5407 67.44 81.994 66.6667 79.8073 65.12C75.9673 62.4267 73.8607 58.7067 73.4873 53.96C73.1673 50.0933 74.1007 46.6933 76.2873 43.76C77.3007 42.4 78.5007 41.28 79.8873 40.4C82.794 38.5867 86.2607 37.9333 90.2873 38.44C90.5807 38.4667 90.834 38.5067 91.0473 38.56C92.514 38.8267 93.874 39.4533 95.1273 40.44C96.1407 41.2667 96.8873 42.2533 97.3673 43.4C97.714 44.2267 97.9007 45.08 97.9273 45.96C97.9273 46.2267 97.9273 46.5067 97.9273 46.8C97.9007 47.1467 97.8473 47.48 97.7673 47.8C97.7673 47.8267 97.754 47.8667 97.7273 47.92L97.5673 48.4C97.5407 48.48 97.5273 48.52 97.5273 48.52C97.5273 48.5733 97.514 48.6133 97.4873 48.64C97.4607 48.6933 97.434 48.7333 97.4073 48.76L97.3673 48.84C97.3407 48.8933 97.314 48.9333 97.2873 48.96C97.2607 49.0133 97.2207 49.0667 97.1673 49.12L97.0873 49.28C96.9807 49.3867 96.874 49.5067 96.7673 49.64L96.7273 49.68C96.6207 49.7867 96.5407 49.8667 96.4873 49.92L96.3673 50C95.8073 50.4 95.1807 50.6267 94.4873 50.68C93.794 50.7067 93.1407 50.5467 92.5273 50.2C92.154 49.96 91.8207 49.68 91.5273 49.36C91.234 49.0133 91.0073 48.64 90.8473 48.24C90.714 47.8133 90.634 47.3733 90.6073 46.92C90.5807 46.28 90.7007 45.6933 90.9673 45.16C91.5007 43.9867 91.714 42.9733 91.6073 42.12C91.5273 41.24 91.234 40.6267 90.7273 40.28C89.794 39.6667 88.6607 39.56 87.3273 39.96C85.594 40.4933 84.1807 41.9333 83.0873 44.28C81.994 46.6 81.4473 49.0667 81.4473 51.68C81.4473 53.0667 81.594 54.4 81.8873 55.68C82.2073 56.96 82.6607 58.16 83.2473 59.28C83.8607 60.4 84.6873 61.3333 85.7273 62.08C86.7673 62.8 87.9673 63.2267 89.3273 63.36C91.2207 63.5733 92.914 63.0133 94.4073 61.68C95.9007 60.3467 97.0073 58.64 97.7273 56.56L98.4873 57.04ZM125.123 64.36V66.6H123.763C119.443 66.6 116.457 66.6 114.803 66.6C114.51 66.6 114.163 66.56 113.763 66.48C113.39 66.4 113.123 66.36 112.963 66.36C112.75 66.3867 112.55 66.44 112.363 66.52C111.537 66.84 110.47 67.0267 109.163 67.08C109.083 67.08 109.003 67.08 108.923 67.08C107.857 67.08 106.857 66.84 105.923 66.36C105.603 66.2267 105.31 66.04 105.043 65.8C104.883 65.6933 104.71 65.56 104.523 65.4L104.483 65.32C104.297 65.16 104.15 65.0133 104.043 64.88C103.67 64.4 103.403 63.84 103.243 63.2C103.083 62.5867 103.003 61.7333 103.003 60.64V59.84L102.963 54.8C102.937 53.8933 102.59 53.1467 101.923 52.56C101.257 51.9733 100.537 51.68 99.7633 51.68V49.48L110.243 45.72V61.28C110.243 61.8933 110.27 62.3333 110.323 62.6C110.377 62.92 110.483 63.1867 110.643 63.4C110.803 63.6133 111.003 63.7867 111.243 63.92C111.803 64.2133 112.47 64.1867 113.243 63.84C113.67 63.6267 114.003 63.3333 114.243 62.96C114.51 62.56 114.643 62.12 114.643 61.64V54.8C114.59 53.8933 114.23 53.1467 113.563 52.56C112.897 51.9733 112.177 51.68 111.403 51.68V49.48L121.883 45.72V46.72V61.16C121.91 62.0933 122.257 62.8667 122.923 63.48C123.59 64.0667 124.323 64.36 125.123 64.36ZM144.639 58.48H145.639L145.559 58.92C145.345 59.88 145.012 60.7733 144.559 61.6L144.519 61.72C144.492 61.7733 144.452 61.8267 144.399 61.88C143.919 62.76 143.305 63.56 142.559 64.28C140.612 66.12 138.319 67.0533 135.679 67.08C135.652 67.08 135.625 67.08 135.599 67.08C135.572 67.08 135.545 67.08 135.519 67.08H135.439C135.225 67.08 135.025 67.0667 134.839 67.04C134.652 67.0133 134.505 67 134.399 67C134.105 66.9733 133.839 66.9333 133.599 66.88L133.479 66.84C131.745 66.4667 130.199 65.68 128.839 64.48C127.505 63.2533 126.559 61.7867 125.999 60.08C125.625 58.96 125.439 57.84 125.439 56.72C125.439 53.8667 126.425 51.4267 128.399 49.4C130.399 47.3733 132.799 46.36 135.599 46.36C135.652 46.36 135.692 46.36 135.719 46.36H135.759C137.812 46.4133 139.679 47.0267 141.359 48.2C143.039 49.3733 144.265 50.9333 145.039 52.88C145.172 53.1733 145.279 53.48 145.359 53.8C145.439 54.2 145.359 54.5333 145.119 54.8C144.879 55.0933 144.585 55.24 144.239 55.24H133.159C133.159 57.4533 133.665 59.1733 134.679 60.4C135.692 61.6 137.159 62.2 139.079 62.2C141.265 62.2 142.999 61.1733 144.279 59.12C144.519 58.7467 144.639 58.5333 144.639 58.48ZM135.959 48.44C135.079 48.44 134.385 48.8533 133.879 49.68C133.399 50.5067 133.145 51.68 133.119 53.2H135.599C136.372 53.2 137.012 52.88 137.519 52.24C137.999 51.6267 138.145 50.9333 137.959 50.16C137.825 49.5467 137.599 49.1067 137.279 48.84C136.959 48.5733 136.519 48.44 135.959 48.44Z" fill="#FDF6E0"/>
<g filter="url(#filter0_d_333_2229)">
<circle cx="1448.13" cy="54.1277" r="17.1277" fill="#FDF6E0"/>
</g>
<g filter="url(#filter1_i_333_2229)">
<path d="M1438.71 65.2606C1438.71 60.576 1442.73 56.7784 1447.7 56.7784C1452.67 56.7784 1456.69 60.576 1456.69 65.2606H1438.71ZM1447.7 55.7181C1443.97 55.7181 1440.96 52.8712 1440.96 49.3563C1440.96 45.8415 1443.97 42.9946 1447.7 42.9946C1451.43 42.9946 1454.44 45.8415 1454.44 49.3563C1454.44 52.8712 1451.43 55.7181 1447.7 55.7181Z" fill="#23537B"/>
</g>
<path fill-rule="evenodd" clip-rule="evenodd" d="M1269.5 65C1275.3 65 1280 60.299 1280 54.5C1280 48.701 1275.3 44 1269.5 44C1263.7 44 1259 48.701 1259 54.5C1259 60.299 1263.7 65 1269.5 65ZM1263.74 54.5404V53.1869H1264.96C1265.19 53.1869 1265.36 53.2165 1265.47 53.2758C1265.67 53.3806 1265.78 53.5857 1265.78 53.891C1265.78 54.1736 1265.67 54.3627 1265.46 54.4584C1265.34 54.5131 1265.17 54.5404 1264.93 54.5404H1263.74ZM1265.99 52.4418C1265.8 52.362 1265.53 52.3188 1265.18 52.3119H1262.71V57.35H1263.74V55.3744H1264.82C1265.13 55.3744 1265.34 55.428 1265.46 55.5351C1265.57 55.6422 1265.63 55.8563 1265.63 56.1776L1265.64 56.6459C1265.64 56.794 1265.66 56.9387 1265.68 57.08C1265.7 57.1483 1265.72 57.2383 1265.75 57.35H1266.91V57.2235C1266.81 57.162 1266.75 57.0663 1266.72 56.9364C1266.7 56.8544 1266.69 56.6983 1266.69 56.4682V56.1298C1266.69 55.7766 1266.64 55.5146 1266.55 55.3437C1266.45 55.1705 1266.29 55.0372 1266.05 54.9438C1266.33 54.848 1266.53 54.6851 1266.65 54.455C1266.77 54.2226 1266.83 53.9867 1266.83 53.7475C1266.83 53.5492 1266.8 53.3726 1266.74 53.2177C1266.67 53.0627 1266.59 52.9215 1266.48 52.7938C1266.34 52.6389 1266.18 52.5215 1265.99 52.4418ZM1268.8 53.204H1271.47V52.3119H1267.77V57.35H1271.59V56.4442H1268.8V55.1488H1271.25V54.2738H1268.8V53.204ZM1272.9 52.8383C1272.43 53.3145 1272.19 53.9924 1272.19 54.872C1272.19 55.6854 1272.4 56.3257 1272.81 56.7929C1273.23 57.2577 1273.8 57.4901 1274.52 57.4901C1275.11 57.4901 1275.59 57.3181 1275.96 56.974C1276.34 56.6299 1276.57 56.1833 1276.66 55.6342H1275.62C1275.55 55.8939 1275.46 56.0888 1275.35 56.2187C1275.16 56.4602 1274.88 56.581 1274.51 56.581C1274.15 56.581 1273.85 56.4408 1273.62 56.1605C1273.38 55.878 1273.27 55.4542 1273.27 54.8891C1273.27 54.324 1273.38 53.8876 1273.6 53.58C1273.82 53.2701 1274.12 53.1151 1274.51 53.1151C1274.88 53.1151 1275.17 53.2245 1275.36 53.4433C1275.46 53.5663 1275.55 53.7486 1275.62 53.9901H1276.67C1276.66 53.6757 1276.54 53.3624 1276.32 53.0502C1275.93 52.4942 1275.31 52.2162 1274.46 52.2162C1273.83 52.2162 1273.31 52.4236 1272.9 52.8383Z" fill="#FDF6E0"/>
<path d="M1295.46 62V47.72H1304.5C1308.14 47.72 1309.32 49.38 1309.32 51.6C1309.32 53.46 1308.3 54.62 1306.96 55.04V55.08C1308.66 55.44 1309.04 56.92 1309.04 58.94C1309.04 59.62 1309.06 61.22 1309.64 62H1306.4C1306.18 61.6 1306.04 60.88 1306.04 59.84C1306.04 57.8 1305.76 56.36 1303.56 56.36H1298.46V62H1295.46ZM1298.46 54.12H1303.64C1305.3 54.12 1306.2 53.62 1306.2 52.02C1306.2 50.54 1305.22 49.96 1303.64 49.96H1298.46V54.12ZM1323.97 57.4H1313.97C1314.03 58.58 1314.83 60.4 1317.57 60.4C1319.39 60.4 1320.19 59.76 1320.73 58.88H1323.73C1323.13 60.06 1321.69 62.4 1317.65 62.4C1312.87 62.4 1311.09 59.62 1311.09 56.8C1311.09 53.26 1313.71 51 1317.47 51C1322.17 51 1323.97 53.9 1323.97 57V57.4ZM1313.97 55.64H1321.09C1320.75 53.52 1318.87 52.88 1317.51 52.88C1316.23 52.88 1314.43 53.48 1313.97 55.64ZM1337.78 55.12H1334.9C1334.7 54.02 1333.54 53.12 1331.96 53.12C1329.4 53.12 1328.28 54.86 1328.28 56.7C1328.28 58.54 1329.28 60.28 1331.66 60.28C1333.8 60.28 1334.38 59.44 1334.96 57.94H1337.84C1337.2 62.34 1332.7 62.4 1331.96 62.4C1327.22 62.4 1325.4 59.62 1325.4 56.7C1325.4 53.28 1327.86 51 1331.96 51C1333.56 51 1337.2 51.54 1337.78 55.12ZM1341.97 56.7C1341.97 58.54 1342.97 60.28 1345.65 60.28C1348.33 60.28 1349.33 58.54 1349.33 56.7C1349.33 54.86 1348.33 53.12 1345.65 53.12C1342.97 53.12 1341.97 54.86 1341.97 56.7ZM1339.09 56.7C1339.09 53.78 1340.91 51 1345.65 51C1350.39 51 1352.21 53.78 1352.21 56.7C1352.21 59.62 1350.39 62.4 1345.65 62.4C1340.91 62.4 1339.09 59.62 1339.09 56.7ZM1353.99 62V51.4H1356.75V53.46H1356.79C1357.53 52.26 1358.67 51.12 1360.79 51.12C1361.21 51.12 1361.53 51.16 1361.89 51.22V53.94C1361.13 53.7 1360.61 53.68 1360.13 53.68C1358.73 53.68 1356.75 54.42 1356.75 56.88V62H1353.99ZM1365.67 56.74C1365.67 58.54 1366.65 60.28 1369.25 60.28C1371.83 60.28 1372.81 58.54 1372.81 56.74C1372.81 54.98 1371.83 53.24 1369.25 53.24C1366.65 53.24 1365.67 54.98 1365.67 56.74ZM1375.45 47.48V62H1372.68V60.54H1372.65C1372.45 61.18 1370.79 62.4 1368.59 62.4C1364.55 62.4 1362.78 59.46 1362.78 56.74C1362.78 54.06 1364.55 51.12 1368.59 51.12C1370.25 51.12 1371.83 51.64 1372.65 52.92H1372.68V47.48H1375.45Z" fill="#FDF6E0"/>
<path d="M1112.46 49.96V54.32H1117.28C1118.98 54.32 1119.9 53.86 1119.9 52.16C1119.9 50.4 1118.66 49.96 1117.5 49.96H1112.46ZM1109.46 62V47.72H1118.26C1121.76 47.72 1122.9 49.86 1122.9 52.16C1122.9 54.34 1121.52 56.56 1118.3 56.56H1112.46V62H1109.46ZM1124.69 62V51.4H1127.45V53.46H1127.49C1128.23 52.26 1129.37 51.12 1131.49 51.12C1131.91 51.12 1132.23 51.16 1132.59 51.22V53.94C1131.83 53.7 1131.31 53.68 1130.83 53.68C1129.43 53.68 1127.45 54.42 1127.45 56.88V62H1124.69ZM1145.32 54.56V59.58C1145.32 60.16 1145.74 60.18 1145.92 60.18C1146.18 60.18 1146.6 60.16 1146.82 60.12V62.06C1146.28 62.16 1145.8 62.3 1144.86 62.3C1143.06 62.3 1142.86 61.34 1142.78 60.94C1142.24 61.46 1140.9 62.4 1137.8 62.4C1135.04 62.4 1133.48 61.16 1133.48 59.08C1133.48 56.16 1136.48 55.9 1138.24 55.74C1142.2 55.36 1142.62 55.22 1142.62 54.4C1142.62 53.18 1141.22 52.88 1139.62 52.88C1137.8 52.88 1136.82 53.46 1136.72 54.64H1134.02C1134.42 51.86 1136.48 51 1139.62 51C1145.16 51 1145.32 53.18 1145.32 54.56ZM1142.56 57.74V56.72C1141.76 57.06 1140.9 57.16 1138.94 57.38C1136.86 57.62 1136.36 58.08 1136.36 58.98C1136.36 60.38 1137.64 60.64 1138.58 60.64C1140.06 60.64 1142.56 60.08 1142.56 57.74ZM1159.95 55.12H1157.07C1156.87 54.02 1155.71 53.12 1154.13 53.12C1151.57 53.12 1150.45 54.86 1150.45 56.7C1150.45 58.54 1151.45 60.28 1153.83 60.28C1155.97 60.28 1156.55 59.44 1157.13 57.94H1160.01C1159.37 62.34 1154.87 62.4 1154.13 62.4C1149.39 62.4 1147.57 59.62 1147.57 56.7C1147.57 53.28 1150.03 51 1154.13 51C1155.73 51 1159.37 51.54 1159.95 55.12ZM1162.58 59.04V53.4H1160.38V51.4H1162.58V48.12H1165.34V51.4H1168.22V53.4H1165.34V58.24C1165.34 59.46 1165.4 60.12 1166.34 60.12C1167.02 60.12 1167.66 60.1 1168.32 60.08V62.08C1167.58 62.18 1167.04 62.24 1166.2 62.24C1162.84 62.24 1162.58 61.04 1162.58 59.04ZM1169.94 62V51.4H1172.7V62H1169.94ZM1169.94 49.72V47.48H1172.7V49.72H1169.94ZM1186.94 55.12H1184.06C1183.86 54.02 1182.7 53.12 1181.12 53.12C1178.56 53.12 1177.44 54.86 1177.44 56.7C1177.44 58.54 1178.44 60.28 1180.82 60.28C1182.96 60.28 1183.54 59.44 1184.12 57.94H1187C1186.36 62.34 1181.86 62.4 1181.12 62.4C1176.38 62.4 1174.56 59.62 1174.56 56.7C1174.56 53.28 1177.02 51 1181.12 51C1182.72 51 1186.36 51.54 1186.94 55.12ZM1201.25 57.4H1191.25C1191.31 58.58 1192.11 60.4 1194.85 60.4C1196.67 60.4 1197.47 59.76 1198.01 58.88H1201.01C1200.41 60.06 1198.97 62.4 1194.93 62.4C1190.15 62.4 1188.37 59.62 1188.37 56.8C1188.37 53.26 1190.99 51 1194.75 51C1199.45 51 1201.25 53.9 1201.25 57V57.4ZM1191.25 55.64H1198.37C1198.03 53.52 1196.15 52.88 1194.79 52.88C1193.51 52.88 1191.71 53.48 1191.25 55.64Z" fill="#FDF6E0"/>
<path d="M1084.29 44.8951C1083.52 44.9513 1082.52 45.1666 1081.71 45.4475C1078.84 46.4446 1076.51 48.8132 1075.53 51.7249C1074.69 54.2481 1074.85 56.8414 1075.98 59.2288C1077.4 62.2341 1080.16 64.2704 1083.51 64.7854C1084.23 64.8977 1085.63 64.8977 1086.36 64.7854C1088.59 64.4483 1090.51 63.4746 1092.08 61.8924C1092.88 61.0826 1093.44 60.3149 1093.92 59.3365C1094.57 58.0351 1094.9 56.7665 1094.98 55.203C1095.02 54.6741 1095.01 54.5898 1094.93 54.4072C1094.74 53.9859 1094.28 53.78 1093.78 53.897C1093.27 54.0187 1093.03 54.4026 1093.03 55.1094C1093.03 55.5494 1092.92 56.2937 1092.79 56.8087C1091.89 60.3476 1088.68 62.838 1085.04 62.838C1081.32 62.838 1078.09 60.254 1077.25 56.6121C1076.93 55.2545 1077.01 53.7004 1077.46 52.3522C1077.92 50.9853 1078.83 49.6746 1080 48.7009C1081.01 47.8583 1082.05 47.3574 1083.39 47.0765C1083.93 46.9595 1084.08 46.9501 1084.97 46.9501C1085.71 46.9501 1086.09 46.9736 1086.45 47.0344C1087.27 47.1748 1087.48 47.1795 1087.72 47.0531C1088.25 46.7816 1088.48 46.0701 1088.18 45.6301C1087.98 45.3398 1087.71 45.2088 1087.02 45.0777C1086.04 44.8904 1085.15 44.8296 1084.29 44.8951Z" fill="#FDF6E0"/>
<path d="M1091.68 48.9767C1091.6 49.0001 1091.48 49.0563 1091.42 49.1031C1091.31 49.1827 1089.92 50.7649 1086.34 54.8656C1085.64 55.6661 1085.05 56.3215 1085.03 56.3168C1085.01 56.3074 1084.72 56.0406 1083.59 54.9499C1082.69 54.0933 1082.53 53.9622 1082.3 53.8966C1081.95 53.7983 1081.61 53.8966 1081.33 54.1728C1081.05 54.4537 1080.96 54.7486 1081.05 55.1231C1081.1 55.3618 1081.16 55.4227 1082.78 57.0471C1083.7 57.9693 1084.52 58.7604 1084.6 58.8025C1084.69 58.8493 1084.85 58.8774 1085.05 58.8821C1085.3 58.8821 1085.39 58.8634 1085.54 58.7604C1085.75 58.6199 1092.73 50.6947 1092.86 50.4466C1092.99 50.1985 1093.01 49.8194 1092.91 49.5666C1092.76 49.1546 1092.15 48.8644 1091.68 48.9767Z" fill="#FDF6E0"/>
<path d="M939.7 51.74C939.7 48.56 942.52 47.32 946 47.32C948.2 47.32 952.6 47.72 952.98 51.86H949.74C949.64 50.76 948.64 49.56 946.14 49.56C944.14 49.56 942.82 50.18 942.82 51.52C942.82 54.88 953.46 51.66 953.46 57.76C953.46 61.44 949.64 62.4 946.6 62.4C941.46 62.4 939.4 60.38 939.36 57.38H942.6C942.68 59.26 944.24 60.16 946.7 60.16C948.52 60.16 950.22 59.62 950.22 58.06C950.22 54.52 939.7 57.6 939.7 51.74ZM967.484 57.4H957.484C957.544 58.58 958.344 60.4 961.084 60.4C962.904 60.4 963.704 59.76 964.244 58.88H967.244C966.644 60.06 965.204 62.4 961.164 62.4C956.384 62.4 954.604 59.62 954.604 56.8C954.604 53.26 957.224 51 960.984 51C965.684 51 967.484 53.9 967.484 57V57.4ZM957.484 55.64H964.604C964.264 53.52 962.384 52.88 961.024 52.88C959.744 52.88 957.944 53.48 957.484 55.64ZM980.758 54.56V59.58C980.758 60.16 981.178 60.18 981.358 60.18C981.618 60.18 982.038 60.16 982.258 60.12V62.06C981.718 62.16 981.238 62.3 980.298 62.3C978.498 62.3 978.298 61.34 978.218 60.94C977.678 61.46 976.338 62.4 973.238 62.4C970.478 62.4 968.918 61.16 968.918 59.08C968.918 56.16 971.918 55.9 973.678 55.74C977.638 55.36 978.058 55.22 978.058 54.4C978.058 53.18 976.658 52.88 975.058 52.88C973.238 52.88 972.258 53.46 972.158 54.64H969.458C969.858 51.86 971.918 51 975.058 51C980.598 51 980.758 53.18 980.758 54.56ZM977.998 57.74V56.72C977.198 57.06 976.338 57.16 974.378 57.38C972.298 57.62 971.798 58.08 971.798 58.98C971.798 60.38 973.078 60.64 974.018 60.64C975.498 60.64 977.998 60.08 977.998 57.74ZM983.46 62V51.4H986.22V53.46H986.26C987 52.26 988.14 51.12 990.26 51.12C990.68 51.12 991 51.16 991.36 51.22V53.94C990.6 53.7 990.08 53.68 989.6 53.68C988.2 53.68 986.22 54.42 986.22 56.88V62H983.46ZM1004.64 55.12H1001.76C1001.56 54.02 1000.4 53.12 998.818 53.12C996.258 53.12 995.138 54.86 995.138 56.7C995.138 58.54 996.138 60.28 998.518 60.28C1000.66 60.28 1001.24 59.44 1001.82 57.94H1004.7C1004.06 62.34 999.558 62.4 998.818 62.4C994.078 62.4 992.258 59.62 992.258 56.7C992.258 53.28 994.718 51 998.818 51C1000.42 51 1004.06 51.54 1004.64 55.12ZM1006.41 62V47.48H1009.17V53H1009.21C1010.11 51.86 1011.51 51.12 1013.39 51.12C1015.67 51.12 1017.89 51.94 1017.89 54.8V62H1015.13V55.68C1015.13 54.54 1014.75 53.24 1012.47 53.24C1011.03 53.24 1009.17 54.04 1009.17 56.3V62H1006.41Z" fill="#FDF6E0"/>
<path d="M921.783 58.3911L926 62.6076L924.608 64L920.391 59.7834C918.875 60.9964 916.952 61.722 914.861 61.722C909.97 61.722 906 57.7523 906 52.861C906 47.9697 909.97 44 914.861 44C919.752 44 923.722 47.9697 923.722 52.861C923.722 54.9522 922.996 56.875 921.783 58.3911ZM919.808 57.6605C921.012 56.4198 921.753 54.7273 921.753 52.861C921.753 49.0532 918.669 45.9691 914.861 45.9691C911.053 45.9691 907.969 49.0532 907.969 52.861C907.969 56.6688 911.053 59.7529 914.861 59.7529C916.727 59.7529 918.42 59.012 919.661 57.8081L919.808 57.6605Z" fill="#FDF6E0"/>
<path d="M221.207 141.293C221.598 141.683 221.598 142.317 221.207 142.707L214.843 149.071C214.453 149.462 213.819 149.462 213.429 149.071C213.038 148.681 213.038 148.047 213.429 147.657L219.086 142L213.429 136.343C213.038 135.953 213.038 135.319 213.429 134.929C213.819 134.538 214.453 134.538 214.843 134.929L221.207 141.293ZM219 141H220.5V143H219V141Z" fill="#23537B"/>
<path d="M325.207 141.293C325.598 141.683 325.598 142.317 325.207 142.707L318.843 149.071C318.453 149.462 317.819 149.462 317.429 149.071C317.038 148.681 317.038 148.047 317.429 147.657L323.086 142L317.429 136.343C317.038 135.953 317.038 135.319 317.429 134.929C317.819 134.538 318.453 134.538 318.843 134.929L325.207 141.293ZM323 141H324.5V143H323V141Z" fill="#23537B"/>
<path d="M341.234 143.297C341.271 143.948 341.424 144.477 341.695 144.883C342.211 145.643 343.12 146.023 344.422 146.023C345.005 146.023 345.536 145.94 346.016 145.773C346.943 145.451 347.406 144.872 347.406 144.039C347.406 143.414 347.211 142.969 346.82 142.703C346.424 142.443 345.805 142.216 344.961 142.023L343.406 141.672C342.391 141.443 341.672 141.19 341.25 140.914C340.521 140.435 340.156 139.719 340.156 138.766C340.156 137.734 340.513 136.888 341.227 136.227C341.94 135.565 342.951 135.234 344.258 135.234C345.461 135.234 346.482 135.526 347.32 136.109C348.164 136.688 348.586 137.615 348.586 138.891H347.125C347.047 138.276 346.88 137.805 346.625 137.477C346.151 136.878 345.346 136.578 344.211 136.578C343.294 136.578 342.635 136.771 342.234 137.156C341.833 137.542 341.633 137.99 341.633 138.5C341.633 139.062 341.867 139.474 342.336 139.734C342.643 139.901 343.339 140.109 344.422 140.359L346.031 140.727C346.807 140.904 347.406 141.146 347.828 141.453C348.557 141.99 348.922 142.768 348.922 143.789C348.922 145.06 348.458 145.969 347.531 146.516C346.609 147.062 345.536 147.336 344.312 147.336C342.885 147.336 341.768 146.971 340.961 146.242C340.154 145.518 339.758 144.536 339.773 143.297H341.234ZM350.672 135.523H352.023V142.188L355.633 138.633H357.43L354.227 141.766L357.609 147H355.812L353.203 142.781L352.023 143.859V147H350.672V135.523ZM362.188 138.445C362.781 138.445 363.357 138.586 363.914 138.867C364.471 139.143 364.896 139.503 365.188 139.945C365.469 140.367 365.656 140.859 365.75 141.422C365.833 141.807 365.875 142.422 365.875 143.266H359.742C359.768 144.115 359.969 144.797 360.344 145.312C360.719 145.823 361.299 146.078 362.086 146.078C362.82 146.078 363.406 145.836 363.844 145.352C364.094 145.07 364.271 144.745 364.375 144.375H365.758C365.721 144.682 365.599 145.026 365.391 145.406C365.188 145.781 364.958 146.089 364.703 146.328C364.276 146.745 363.747 147.026 363.117 147.172C362.779 147.255 362.396 147.297 361.969 147.297C360.927 147.297 360.044 146.919 359.32 146.164C358.596 145.404 358.234 144.341 358.234 142.977C358.234 141.633 358.599 140.542 359.328 139.703C360.057 138.865 361.01 138.445 362.188 138.445ZM364.43 142.148C364.372 141.539 364.24 141.052 364.031 140.688C363.646 140.01 363.003 139.672 362.102 139.672C361.456 139.672 360.914 139.906 360.477 140.375C360.039 140.839 359.807 141.43 359.781 142.148H364.43ZM367.891 136.297H369.312V138.633H370.648V139.781H369.312V145.242C369.312 145.534 369.411 145.729 369.609 145.828C369.719 145.885 369.901 145.914 370.156 145.914C370.224 145.914 370.297 145.914 370.375 145.914C370.453 145.909 370.544 145.901 370.648 145.891V147C370.487 147.047 370.318 147.081 370.141 147.102C369.969 147.122 369.781 147.133 369.578 147.133C368.922 147.133 368.477 146.966 368.242 146.633C368.008 146.294 367.891 145.857 367.891 145.32V139.781H366.758V138.633H367.891V136.297ZM375.289 138.391C376.232 138.391 376.997 138.62 377.586 139.078C378.18 139.536 378.536 140.326 378.656 141.445H377.289C377.206 140.93 377.016 140.503 376.719 140.164C376.422 139.82 375.945 139.648 375.289 139.648C374.393 139.648 373.753 140.086 373.367 140.961C373.117 141.529 372.992 142.229 372.992 143.062C372.992 143.901 373.169 144.607 373.523 145.18C373.878 145.753 374.435 146.039 375.195 146.039C375.779 146.039 376.24 145.862 376.578 145.508C376.922 145.148 377.159 144.659 377.289 144.039H378.656C378.5 145.148 378.109 145.961 377.484 146.477C376.859 146.987 376.06 147.242 375.086 147.242C373.992 147.242 373.12 146.844 372.469 146.047C371.818 145.245 371.492 144.245 371.492 143.047C371.492 141.578 371.849 140.435 372.562 139.617C373.276 138.799 374.185 138.391 375.289 138.391ZM380.062 135.484H381.469V139.766C381.802 139.344 382.102 139.047 382.367 138.875C382.82 138.578 383.385 138.43 384.062 138.43C385.276 138.43 386.099 138.854 386.531 139.703C386.766 140.167 386.883 140.81 386.883 141.633V147H385.438V141.727C385.438 141.112 385.359 140.661 385.203 140.375C384.948 139.917 384.469 139.688 383.766 139.688C383.182 139.688 382.654 139.888 382.18 140.289C381.706 140.69 381.469 141.448 381.469 142.562V147H380.062V135.484Z" fill="#23537B"/>
<path d="M237.234 143.297C237.271 143.948 237.424 144.477 237.695 144.883C238.211 145.643 239.12 146.023 240.422 146.023C241.005 146.023 241.536 145.94 242.016 145.773C242.943 145.451 243.406 144.872 243.406 144.039C243.406 143.414 243.211 142.969 242.82 142.703C242.424 142.443 241.805 142.216 240.961 142.023L239.406 141.672C238.391 141.443 237.672 141.19 237.25 140.914C236.521 140.435 236.156 139.719 236.156 138.766C236.156 137.734 236.513 136.888 237.227 136.227C237.94 135.565 238.951 135.234 240.258 135.234C241.461 135.234 242.482 135.526 243.32 136.109C244.164 136.688 244.586 137.615 244.586 138.891H243.125C243.047 138.276 242.88 137.805 242.625 137.477C242.151 136.878 241.346 136.578 240.211 136.578C239.294 136.578 238.635 136.771 238.234 137.156C237.833 137.542 237.633 137.99 237.633 138.5C237.633 139.062 237.867 139.474 238.336 139.734C238.643 139.901 239.339 140.109 240.422 140.359L242.031 140.727C242.807 140.904 243.406 141.146 243.828 141.453C244.557 141.99 244.922 142.768 244.922 143.789C244.922 145.06 244.458 145.969 243.531 146.516C242.609 147.062 241.536 147.336 240.312 147.336C238.885 147.336 237.768 146.971 236.961 146.242C236.154 145.518 235.758 144.536 235.773 143.297H237.234ZM250.188 138.445C250.781 138.445 251.357 138.586 251.914 138.867C252.471 139.143 252.896 139.503 253.188 139.945C253.469 140.367 253.656 140.859 253.75 141.422C253.833 141.807 253.875 142.422 253.875 143.266H247.742C247.768 144.115 247.969 144.797 248.344 145.312C248.719 145.823 249.299 146.078 250.086 146.078C250.82 146.078 251.406 145.836 251.844 145.352C252.094 145.07 252.271 144.745 252.375 144.375H253.758C253.721 144.682 253.599 145.026 253.391 145.406C253.188 145.781 252.958 146.089 252.703 146.328C252.276 146.745 251.747 147.026 251.117 147.172C250.779 147.255 250.396 147.297 249.969 147.297C248.927 147.297 248.044 146.919 247.32 146.164C246.596 145.404 246.234 144.341 246.234 142.977C246.234 141.633 246.599 140.542 247.328 139.703C248.057 138.865 249.01 138.445 250.188 138.445ZM252.43 142.148C252.372 141.539 252.24 141.052 252.031 140.688C251.646 140.01 251.003 139.672 250.102 139.672C249.456 139.672 248.914 139.906 248.477 140.375C248.039 140.839 247.807 141.43 247.781 142.148H252.43ZM256.688 144.773C256.688 145.18 256.836 145.5 257.133 145.734C257.43 145.969 257.781 146.086 258.188 146.086C258.682 146.086 259.161 145.971 259.625 145.742C260.406 145.362 260.797 144.74 260.797 143.875V142.742C260.625 142.852 260.404 142.943 260.133 143.016C259.862 143.089 259.596 143.141 259.336 143.172L258.484 143.281C257.974 143.349 257.591 143.456 257.336 143.602C256.904 143.846 256.688 144.237 256.688 144.773ZM260.094 141.93C260.417 141.888 260.633 141.753 260.742 141.523C260.805 141.398 260.836 141.219 260.836 140.984C260.836 140.505 260.664 140.159 260.32 139.945C259.982 139.727 259.495 139.617 258.859 139.617C258.125 139.617 257.604 139.815 257.297 140.211C257.125 140.43 257.013 140.755 256.961 141.188H255.648C255.674 140.156 256.008 139.44 256.648 139.039C257.294 138.633 258.042 138.43 258.891 138.43C259.875 138.43 260.674 138.617 261.289 138.992C261.898 139.367 262.203 139.951 262.203 140.742V145.562C262.203 145.708 262.232 145.826 262.289 145.914C262.352 146.003 262.479 146.047 262.672 146.047C262.734 146.047 262.805 146.044 262.883 146.039C262.961 146.029 263.044 146.016 263.133 146V147.039C262.914 147.102 262.747 147.141 262.633 147.156C262.518 147.172 262.362 147.18 262.164 147.18C261.68 147.18 261.328 147.008 261.109 146.664C260.995 146.482 260.914 146.224 260.867 145.891C260.581 146.266 260.169 146.591 259.633 146.867C259.096 147.143 258.505 147.281 257.859 147.281C257.083 147.281 256.448 147.047 255.953 146.578C255.464 146.104 255.219 145.513 255.219 144.805C255.219 144.029 255.461 143.427 255.945 143C256.43 142.573 257.065 142.31 257.852 142.211L260.094 141.93ZM264.555 138.633H265.891V140.078C266 139.797 266.268 139.456 266.695 139.055C267.122 138.648 267.615 138.445 268.172 138.445C268.198 138.445 268.242 138.448 268.305 138.453C268.367 138.458 268.474 138.469 268.625 138.484V139.969C268.542 139.953 268.464 139.943 268.391 139.938C268.323 139.932 268.247 139.93 268.164 139.93C267.456 139.93 266.911 140.159 266.531 140.617C266.151 141.07 265.961 141.594 265.961 142.188V147H264.555V138.633ZM273.07 138.391C274.013 138.391 274.779 138.62 275.367 139.078C275.961 139.536 276.318 140.326 276.438 141.445H275.07C274.987 140.93 274.797 140.503 274.5 140.164C274.203 139.82 273.727 139.648 273.07 139.648C272.174 139.648 271.534 140.086 271.148 140.961C270.898 141.529 270.773 142.229 270.773 143.062C270.773 143.901 270.951 144.607 271.305 145.18C271.659 145.753 272.216 146.039 272.977 146.039C273.56 146.039 274.021 145.862 274.359 145.508C274.703 145.148 274.94 144.659 275.07 144.039H276.438C276.281 145.148 275.891 145.961 275.266 146.477C274.641 146.987 273.841 147.242 272.867 147.242C271.773 147.242 270.901 146.844 270.25 146.047C269.599 145.245 269.273 144.245 269.273 143.047C269.273 141.578 269.63 140.435 270.344 139.617C271.057 138.799 271.966 138.391 273.07 138.391ZM277.844 135.484H279.25V139.766C279.583 139.344 279.883 139.047 280.148 138.875C280.602 138.578 281.167 138.43 281.844 138.43C283.057 138.43 283.88 138.854 284.312 139.703C284.547 140.167 284.664 140.81 284.664 141.633V147H283.219V141.727C283.219 141.112 283.141 140.661 282.984 140.375C282.729 139.917 282.25 139.688 281.547 139.688C280.964 139.688 280.435 139.888 279.961 140.289C279.487 140.69 279.25 141.448 279.25 142.562V147H277.844V135.484ZM291.094 135.484H292.461V139.648C292.768 139.247 293.135 138.943 293.562 138.734C293.99 138.521 294.453 138.414 294.953 138.414C295.995 138.414 296.839 138.773 297.484 139.492C298.135 140.206 298.461 141.26 298.461 142.656C298.461 143.979 298.141 145.078 297.5 145.953C296.859 146.828 295.971 147.266 294.836 147.266C294.201 147.266 293.664 147.112 293.227 146.805C292.966 146.622 292.688 146.331 292.391 145.93V147H291.094V135.484ZM294.75 146.023C295.51 146.023 296.078 145.721 296.453 145.117C296.833 144.513 297.023 143.716 297.023 142.727C297.023 141.846 296.833 141.117 296.453 140.539C296.078 139.961 295.523 139.672 294.789 139.672C294.148 139.672 293.586 139.909 293.102 140.383C292.622 140.857 292.383 141.638 292.383 142.727C292.383 143.513 292.482 144.151 292.68 144.641C293.049 145.562 293.74 146.023 294.75 146.023ZM305.336 138.633H306.891C306.693 139.169 306.253 140.393 305.57 142.305C305.06 143.742 304.633 144.914 304.289 145.82C303.477 147.956 302.904 149.258 302.57 149.727C302.237 150.195 301.664 150.43 300.852 150.43C300.654 150.43 300.5 150.422 300.391 150.406C300.286 150.391 300.156 150.362 300 150.32V149.039C300.245 149.107 300.422 149.148 300.531 149.164C300.641 149.18 300.737 149.188 300.82 149.188C301.081 149.188 301.271 149.143 301.391 149.055C301.516 148.971 301.62 148.867 301.703 148.742C301.729 148.701 301.823 148.487 301.984 148.102C302.146 147.716 302.263 147.43 302.336 147.242L299.242 138.633H300.836L303.078 145.445L305.336 138.633Z" fill="#23537B"/>
<path d="M235 148.602H307.078V149.391H235V148.602Z" fill="#23537B"/>
<path d="M162.258 135.523H163.828V140.266H169.797V135.523H171.367V147H169.797V141.633H163.828V147H162.258V135.523ZM176.914 146.094C177.846 146.094 178.484 145.742 178.828 145.039C179.177 144.331 179.352 143.544 179.352 142.68C179.352 141.898 179.227 141.263 178.977 140.773C178.581 140.003 177.898 139.617 176.93 139.617C176.07 139.617 175.445 139.945 175.055 140.602C174.664 141.258 174.469 142.049 174.469 142.977C174.469 143.867 174.664 144.609 175.055 145.203C175.445 145.797 176.065 146.094 176.914 146.094ZM176.969 138.391C178.047 138.391 178.958 138.75 179.703 139.469C180.448 140.188 180.82 141.245 180.82 142.641C180.82 143.99 180.492 145.104 179.836 145.984C179.18 146.865 178.161 147.305 176.781 147.305C175.63 147.305 174.716 146.917 174.039 146.141C173.362 145.359 173.023 144.312 173.023 143C173.023 141.594 173.38 140.474 174.094 139.641C174.807 138.807 175.766 138.391 176.969 138.391ZM182.5 138.633H183.891V139.82C184.224 139.409 184.526 139.109 184.797 138.922C185.26 138.604 185.786 138.445 186.375 138.445C187.042 138.445 187.578 138.609 187.984 138.938C188.214 139.125 188.422 139.401 188.609 139.766C188.922 139.318 189.289 138.987 189.711 138.773C190.133 138.555 190.607 138.445 191.133 138.445C192.258 138.445 193.023 138.852 193.43 139.664C193.648 140.102 193.758 140.69 193.758 141.43V147H192.297V141.188C192.297 140.63 192.156 140.247 191.875 140.039C191.599 139.831 191.26 139.727 190.859 139.727C190.307 139.727 189.831 139.911 189.43 140.281C189.034 140.651 188.836 141.268 188.836 142.133V147H187.406V141.539C187.406 140.971 187.339 140.557 187.203 140.297C186.99 139.906 186.591 139.711 186.008 139.711C185.477 139.711 184.992 139.917 184.555 140.328C184.122 140.74 183.906 141.484 183.906 142.562V147H182.5V138.633ZM199.312 138.445C199.906 138.445 200.482 138.586 201.039 138.867C201.596 139.143 202.021 139.503 202.312 139.945C202.594 140.367 202.781 140.859 202.875 141.422C202.958 141.807 203 142.422 203 143.266H196.867C196.893 144.115 197.094 144.797 197.469 145.312C197.844 145.823 198.424 146.078 199.211 146.078C199.945 146.078 200.531 145.836 200.969 145.352C201.219 145.07 201.396 144.745 201.5 144.375H202.883C202.846 144.682 202.724 145.026 202.516 145.406C202.312 145.781 202.083 146.089 201.828 146.328C201.401 146.745 200.872 147.026 200.242 147.172C199.904 147.255 199.521 147.297 199.094 147.297C198.052 147.297 197.169 146.919 196.445 146.164C195.721 145.404 195.359 144.341 195.359 142.977C195.359 141.633 195.724 140.542 196.453 139.703C197.182 138.865 198.135 138.445 199.312 138.445ZM201.555 142.148C201.497 141.539 201.365 141.052 201.156 140.688C200.771 140.01 200.128 139.672 199.227 139.672C198.581 139.672 198.039 139.906 197.602 140.375C197.164 140.839 196.932 141.43 196.906 142.148H201.555Z" fill="#23537B"/>
<path d="M161 148.602H203.695V149.391H161V148.602Z" fill="#23537B"/>
<path d="M160.293 889.293C159.902 889.683 159.902 890.317 160.293 890.707L166.657 897.071C167.047 897.462 167.681 897.462 168.071 897.071C168.462 896.681 168.462 896.047 168.071 895.657L162.414 890L168.071 884.343C168.462 883.953 168.462 883.319 168.071 882.929C167.681 882.538 167.047 882.538 166.657 882.929L160.293 889.293ZM162.5 889H161V891H162.5V889Z" fill="#23537B"/>
<path d="M182.18 883.227C183.258 883.227 184.19 883.435 184.976 883.852C186.117 884.451 186.815 885.5 187.07 887H185.531C185.344 886.161 184.956 885.552 184.367 885.172C183.779 884.786 183.036 884.594 182.141 884.594C181.078 884.594 180.182 884.992 179.453 885.789C178.729 886.586 178.367 887.773 178.367 889.352C178.367 890.716 178.667 891.828 179.266 892.688C179.864 893.542 180.841 893.969 182.195 893.969C183.232 893.969 184.088 893.669 184.766 893.07C185.448 892.466 185.797 891.492 185.812 890.148H182.219V888.859H187.258V895H186.258L185.883 893.523C185.357 894.102 184.891 894.503 184.484 894.727C183.802 895.112 182.935 895.305 181.883 895.305C180.523 895.305 179.354 894.865 178.375 893.984C177.307 892.88 176.773 891.365 176.773 889.438C176.773 887.516 177.294 885.987 178.336 884.852C179.325 883.768 180.607 883.227 182.18 883.227ZM192.805 894.094C193.737 894.094 194.375 893.742 194.719 893.039C195.068 892.331 195.242 891.544 195.242 890.68C195.242 889.898 195.117 889.263 194.867 888.773C194.471 888.003 193.789 887.617 192.82 887.617C191.961 887.617 191.336 887.945 190.945 888.602C190.555 889.258 190.359 890.049 190.359 890.977C190.359 891.867 190.555 892.609 190.945 893.203C191.336 893.797 191.956 894.094 192.805 894.094ZM192.859 886.391C193.937 886.391 194.849 886.75 195.594 887.469C196.338 888.188 196.711 889.245 196.711 890.641C196.711 891.99 196.383 893.104 195.726 893.984C195.07 894.865 194.052 895.305 192.672 895.305C191.521 895.305 190.607 894.917 189.93 894.141C189.253 893.359 188.914 892.312 188.914 891C188.914 889.594 189.271 888.474 189.984 887.641C190.698 886.807 191.656 886.391 192.859 886.391ZM202.734 883.484H204.101V887.648C204.409 887.247 204.776 886.943 205.203 886.734C205.63 886.521 206.094 886.414 206.594 886.414C207.635 886.414 208.479 886.773 209.125 887.492C209.776 888.206 210.101 889.26 210.101 890.656C210.101 891.979 209.781 893.078 209.141 893.953C208.5 894.828 207.612 895.266 206.476 895.266C205.841 895.266 205.305 895.112 204.867 894.805C204.607 894.622 204.328 894.331 204.031 893.93V895H202.734V883.484ZM206.391 894.023C207.151 894.023 207.719 893.721 208.094 893.117C208.474 892.513 208.664 891.716 208.664 890.727C208.664 889.846 208.474 889.117 208.094 888.539C207.719 887.961 207.164 887.672 206.43 887.672C205.789 887.672 205.226 887.909 204.742 888.383C204.263 888.857 204.023 889.638 204.023 890.727C204.023 891.513 204.122 892.151 204.32 892.641C204.69 893.562 205.38 894.023 206.391 894.023ZM212.828 892.773C212.828 893.18 212.976 893.5 213.273 893.734C213.57 893.969 213.922 894.086 214.328 894.086C214.823 894.086 215.302 893.971 215.766 893.742C216.547 893.362 216.937 892.74 216.937 891.875V890.742C216.766 890.852 216.544 890.943 216.273 891.016C216.003 891.089 215.737 891.141 215.476 891.172L214.625 891.281C214.114 891.349 213.732 891.456 213.476 891.602C213.044 891.846 212.828 892.237 212.828 892.773ZM216.234 889.93C216.557 889.888 216.773 889.753 216.883 889.523C216.945 889.398 216.976 889.219 216.976 888.984C216.976 888.505 216.805 888.159 216.461 887.945C216.122 887.727 215.635 887.617 215 887.617C214.266 887.617 213.745 887.815 213.437 888.211C213.266 888.43 213.154 888.755 213.101 889.188H211.789C211.815 888.156 212.148 887.44 212.789 887.039C213.435 886.633 214.182 886.43 215.031 886.43C216.016 886.43 216.815 886.617 217.43 886.992C218.039 887.367 218.344 887.951 218.344 888.742V893.562C218.344 893.708 218.372 893.826 218.43 893.914C218.492 894.003 218.62 894.047 218.812 894.047C218.875 894.047 218.945 894.044 219.023 894.039C219.101 894.029 219.185 894.016 219.273 894V895.039C219.055 895.102 218.888 895.141 218.773 895.156C218.659 895.172 218.503 895.18 218.305 895.18C217.82 895.18 217.469 895.008 217.25 894.664C217.135 894.482 217.055 894.224 217.008 893.891C216.721 894.266 216.31 894.591 215.773 894.867C215.237 895.143 214.646 895.281 214 895.281C213.224 895.281 212.588 895.047 212.094 894.578C211.604 894.104 211.359 893.513 211.359 892.805C211.359 892.029 211.601 891.427 212.086 891C212.57 890.573 213.206 890.31 213.992 890.211L216.234 889.93ZM223.883 886.391C224.825 886.391 225.591 886.62 226.18 887.078C226.773 887.536 227.13 888.326 227.25 889.445H225.883C225.799 888.93 225.609 888.503 225.312 888.164C225.016 887.82 224.539 887.648 223.883 887.648C222.987 887.648 222.346 888.086 221.961 888.961C221.711 889.529 221.586 890.229 221.586 891.062C221.586 891.901 221.763 892.607 222.117 893.18C222.471 893.753 223.029 894.039 223.789 894.039C224.372 894.039 224.833 893.862 225.172 893.508C225.516 893.148 225.753 892.659 225.883 892.039H227.25C227.094 893.148 226.703 893.961 226.078 894.477C225.453 894.987 224.654 895.242 223.68 895.242C222.586 895.242 221.713 894.844 221.062 894.047C220.411 893.245 220.086 892.245 220.086 891.047C220.086 889.578 220.443 888.435 221.156 887.617C221.87 886.799 222.779 886.391 223.883 886.391ZM228.625 883.523H229.976V890.188L233.586 886.633H235.383L232.18 889.766L235.562 895H233.766L231.156 890.781L229.976 891.859V895H228.625V883.523Z" fill="#23537B"/>
<path d="M176 896.602H235.625V897.391H176V896.602Z" fill="#23537B"/>
<defs>
<filter id="filter0_d_333_2229" x="1427.66" y="37" width="40.9394" height="40.9394" filterUnits="userSpaceOnUse" color-interpolation-filters="sRGB">
<feFlood flood-opacity="0" result="BackgroundImageFix"/>
<feColorMatrix in="SourceAlpha" type="matrix" values="0 0 0 0 0 0 0 0 0 0 0 0 0 0 0 0 0 0 127 0" result="hardAlpha"/>
<feOffset dy="3.34199"/>
<feGaussianBlur stdDeviation="1.671"/>
<feComposite in2="hardAlpha" operator="out"/>
<feColorMatrix type="matrix" values="0 0 0 0 0 0 0 0 0 0 0 0 0 0 0 0 0 0 0.25 0"/>
<feBlend mode="normal" in2="BackgroundImageFix" result="effect1_dropShadow_333_2229"/>
<feBlend mode="normal" in="SourceGraphic" in2="effect1_dropShadow_333_2229" result="shape"/>
</filter>
<filter id="filter1_i_333_2229" x="1438.71" y="42.9946" width="17.9841" height="23.9371" filterUnits="userSpaceOnUse" color-interpolation-filters="sRGB">
<feFlood flood-opacity="0" result="BackgroundImageFix"/>
<feBlend mode="normal" in="SourceGraphic" in2="BackgroundImageFix" result="shape"/>
<feColorMatrix in="SourceAlpha" type="matrix" values="0 0 0 0 0 0 0 0 0 0 0 0 0 0 0 0 0 0 127 0" result="hardAlpha"/>
<feOffset dy="1.671"/>
<feGaussianBlur stdDeviation="0.835498"/>
<feComposite in2="hardAlpha" operator="arithmetic" k2="-1" k3="1"/>
<feColorMatrix type="matrix" values="0 0 0 0 0 0 0 0 0 0 0 0 0 0 0 0 0 0 0.25 0"/>
<feBlend mode="normal" in2="shape" result="effect1_innerShadow_333_2229"/>
</filter>
<clipPath id="clip0_333_2229">
<rect width="37" height="37" fill="white" transform="translate(1017 416)"/>
</clipPath>
<clipPath id="clip1_333_2229">
<rect width="32.1111" height="32.1111" fill="white" transform="translate(1039.86 543.825) rotate(-150.194)"/>
</clipPath>
</defs>
</svg>
